STARTFONT 2.3
FONT -FontForge-Monoton-Book-R-Normal--24-240-72-72-P-162-ISO10646-1
SIZE 24 72 72  2
FONTBOUNDINGBOX 45 38 -4 -10
COMMENT "Generated by fontforge, http://fontforge.sourceforge.net"
COMMENT "Copyright (c) 2011 by vernon adams. All rights reserved."
STARTPROPERTIES 41
FOUNDRY "FontForge"
FAMILY_NAME "Monoton"
WEIGHT_NAME "Book"
SLANT "R"
SETWIDTH_NAME "Normal"
ADD_STYLE_NAME ""
PIXEL_SIZE 24
POINT_SIZE 240
RESOLUTION_X 72
RESOLUTION_Y 72
SPACING "P"
AVERAGE_WIDTH 162
CHARSET_REGISTRY "ISO10646"
CHARSET_ENCODING "1"
FONTNAME_REGISTRY ""
CHARSET_COLLECTIONS "ISO8859-2 ISO8859-9 ISO8859-4 ISO10646-1"
BITS_PER_PIXEL 2
FONT_NAME "Monoton-Regular"
FACE_NAME "Monoton"
COPYRIGHT "Copyright (c) 2011 by vernon adams. All rights reserved."
FONT_VERSION "1.000"
FONT_ASCENT 19
FONT_DESCENT 5
UNDERLINE_POSITION -1
UNDERLINE_THICKNESS 1
X_HEIGHT 16
CAP_HEIGHT 19
DEFAULT_CHAR 1
RAW_ASCENT 799
RAW_DESCENT 200
NORM_SPACE 3
RELATIVE_WEIGHT 40
RELATIVE_SETWIDTH 50
SUPERSCRIPT_X 0
SUPERSCRIPT_Y 8
SUPERSCRIPT_SIZE 14
SUBSCRIPT_X 0
SUBSCRIPT_Y 1
SUBSCRIPT_SIZE 14
AVG_LOWERCASE_WIDTH 174
AVG_UPPERCASE_WIDTH 189
ENDPROPERTIES
CHARS 372
STARTCHAR glyph1.dup1
ENCODING 0
SWIDTH 108 0
DWIDTH 3 0
BBX 1 1 0 0
BITMAP
00
ENDCHAR
STARTCHAR uni0002
ENCODING 2
SWIDTH 108 0
DWIDTH 3 0
BBX 1 1 0 0
BITMAP
00
ENDCHAR
STARTCHAR uni0009
ENCODING 9
SWIDTH 108 0
DWIDTH 3 0
BBX 1 1 0 0
BITMAP
00
ENDCHAR
STARTCHAR uni000A
ENCODING 10
SWIDTH 108 0
DWIDTH 3 0
BBX 1 1 0 0
BITMAP
00
ENDCHAR
STARTCHAR uni000D
ENCODING 13
SWIDTH 108 0
DWIDTH 3 0
BBX 1 1 0 0
BITMAP
00
ENDCHAR
STARTCHAR space
ENCODING 32
SWIDTH 108 0
DWIDTH 3 0
BBX 1 1 0 0
BITMAP
00
ENDCHAR
STARTCHAR exclam
ENCODING 33
SWIDTH 336 0
DWIDTH 8 0
BBX 6 21 1 -1
BITMAP
4510
DA60
DA60
DA60
DA60
DA60
DA60
DA60
DA60
DA60
DA60
DA60
DA60
DA60
9960
0000
5550
5550
AAA0
0000
BFF0
ENDCHAR
STARTCHAR quotedbl
ENCODING 34
SWIDTH 538 0
DWIDTH 13 0
BBX 11 9 1 11
BITMAP
450144
9A469C
9A469C
9A469C
9A469C
9A469C
9A469C
9A469C
400004
ENDCHAR
STARTCHAR numbersign
ENCODING 35
SWIDTH 1014 0
DWIDTH 24 0
BBX 24 23 0 -2
BITMAP
000004401000
00009D806590
0000D94059C0
000196009D80
00656369D969
005676559655
01A766A967A9
000659027600
02A98DA765A8
0009D8065800
000D94059C00
00196009D800
0016300D9400
002760196000
053655567140
1A659AA76A80
1558D5765540
159D95659540
69D9AA99DA40
0196009D8000
016300D94000
027601960000
011500510000
ENDCHAR
STARTCHAR dollar
ENCODING 36
SWIDTH 686 0
DWIDTH 16 0
BBX 16 27 0 -4
BITMAP
00052000
00092000
00044000
006AAA90
02959568
09795696
259AE964
32744580
259AAA00
65880000
259AA900
36655680
265AF970
0DA55298
0756A999
00BA9226
00016676
00101676
005AA326
01A56D99
0A555298
25AAA970
0B900680
006AA900
00052000
00092000
00041000
ENDCHAR
STARTCHAR percent
ENCODING 37
SWIDTH 1504 0
DWIDTH 36 0
BBX 36 23 0 -2
BITMAP
000140000000000000
006AB8000444000000
0286574008D8000000
0975699009A4000000
199B96601A60000000
327466642620000000
259A9C982260000000
69D869D82690015000
69C869D86980695A40
25978C98988196A590
232566648986691A24
198696609A4997B598
0A69A9C1A619995998
029547427216777765
006EE4032526251625
000000025916262725
000000059C1A659659
00000009D80C8A68CC
0000000D9406655664
0000001964029AA9A0
000000167000A41680
0000002760000AA800
000000225000000000
ENDCHAR
STARTCHAR ampersand
ENCODING 38
SWIDTH 1029 0
DWIDTH 25 0
BBX 23 20 1 0
BITMAP
001555445100
02E5554C9600
096AAA4C9600
2690000C9600
5A6EAA4C9600
8995550C9600
966AAA4C9600
9620000C9600
9A6AAAAC9668
9991554C9614
697FFFEC967C
9995555C9654
9679555C9654
966000089600
DA6FFFD8D9F4
99A555459A50
665AAA9225A4
29AAAA819AA4
0A4555406450
01BFFFD00AF4
ENDCHAR
STARTCHAR quotesingle
ENCODING 39
SWIDTH 257 0
DWIDTH 6 0
BBX 5 9 1 11
BITMAP
4500
9A40
9A40
9A40
9A40
9A40
9A40
9A40
4000
ENDCHAR
STARTCHAR parenleft
ENCODING 40
SWIDTH 410 0
DWIDTH 10 0
BBX 8 23 1 -2
BITMAP
0005
01AA
0A56
29A5
666B
9991
D99A
9670
9620
9620
9620
9620
9620
9620
9620
9660
DA65
8986
666A
2695
096F
0294
005A
ENDCHAR
STARTCHAR parenright
ENCODING 41
SWIDTH 408 0
DWIDTH 10 0
BBX 9 23 0 -2
BITMAP
140000
2A9000
256400
169900
796200
129940
299880
0269C0
0369C0
0369C0
0369C0
0369C0
0369C0
0369C0
0369C0
0269C0
1A5880
24C980
2A6640
159600
7A5800
05A000
290000
ENDCHAR
STARTCHAR asterisk
ENCODING 42
SWIDTH 664 0
DWIDTH 16 0
BBX 14 15 1 2
BITMAP
00258000
00258000
18258640
16A5A940
29659680
D6852970
297A9680
0B1F4E00
75AAA5D0
8A555A20
75A5A5D0
0A659A00
14258140
00258000
00154000
ENDCHAR
STARTCHAR plus
ENCODING 43
SWIDTH 601 0
DWIDTH 14 0
BBX 13 12 1 4
BITMAP
00100000
02769000
02769000
02769000
AB76BA40
02769000
AB76AA40
5676A540
5676A540
02769000
02769000
01655000
ENDCHAR
STARTCHAR comma
ENCODING 44
SWIDTH 252 0
DWIDTH 6 0
BBX 4 9 1 -4
BITMAP
40
96
96
96
16
66
96
A8
50
ENDCHAR
STARTCHAR hyphen
ENCODING 45
SWIDTH 473 0
DWIDTH 11 0
BBX 10 5 1 7
BITMAP
AAAA90
000000
AAAA90
555540
555540
ENDCHAR
STARTCHAR period
ENCODING 46
SWIDTH 255 0
DWIDTH 6 0
BBX 4 5 1 0
BITMAP
55
AA
AA
55
FF
ENDCHAR
STARTCHAR slash
ENCODING 47
SWIDTH 447 0
DWIDTH 11 0
BBX 10 23 0 -3
BITMAP
000450
001A60
002720
002260
002690
006980
009C80
008980
009A40
01A600
027200
022600
026900
069800
09C800
089800
09A400
1A6000
262000
226000
269000
698000
044000
ENDCHAR
STARTCHAR zero
ENCODING 48
SWIDTH 843 0
DWIDTH 20 0
BBX 20 22 0 -1
BITMAP
0000140000
000BAAE400
0075695A00
018A55A680
0625AA5990
099A41A220
1959AB5998
262600998C
3659003659
259C002765
6588001625
69C8001625
6588001625
269C002769
3269006658
266641D9C8
09996A2564
09A696D660
0259552890
00D6EA9740
0029556800
0001AA9000
ENDCHAR
STARTCHAR one
ENCODING 49
SWIDTH 426 0
DWIDTH 10 0
BBX 10 20 0 0
BITMAP
155540
155540
6AAA80
000000
6BFFD0
022590
022590
022590
022590
022590
022590
022590
022590
022590
022590
022590
022590
022590
022590
022590
ENDCHAR
STARTCHAR two
ENCODING 50
SWIDTH 583 0
DWIDTH 14 0
BBX 14 21 0 0
BITMAP
00540000
6EAAE000
15A95D00
2956A640
1AAA5980
14559980
1EAA2690
00026690
00026980
00099D80
001A6640
00666600
00999C00
02666400
06999000
19998000
15555500
2AAAAA40
2AAAAA40
15555500
3FFFFF40
ENDCHAR
STARTCHAR three
ENCODING 51
SWIDTH 612 0
DWIDTH 15 0
BBX 14 22 0 -1
BITMAP
00140000
6EAAE400
15695900
2955A640
16AA5980
1505A660
1AAA6620
00009A70
00AA9660
0055BA60
01FE9790
00546980
00AA9990
00A97660
00559670
05019A70
06AA6660
2A56D690
15552980
2BAA9700
65006800
1AAA9000
ENDCHAR
STARTCHAR four
ENCODING 52
SWIDTH 622 0
DWIDTH 15 0
BBX 15 20 0 0
BITMAP
00044440
00196640
00233300
00665900
0098CC00
01999800
02673000
02666000
09999440
0D998980
26664980
33220980
2AAAAAA0
15555550
7FFFFFF4
15555550
2AAAAAA4
00000580
00000980
00000980
ENDCHAR
STARTCHAR five
ENCODING 53
SWIDTH 691 0
DWIDTH 17 0
BBX 16 21 0 -1
BITMAP
15555550
15555550
1AAAAAA0
00000000
2FFAAAA0
23600000
23600000
236AA900
236546D0
236AAA24
2366918C
23655A66
226AA662
000009A7
001019A7
015A9266
05A56999
0A555698
65BAB960
0A501680
006AA400
ENDCHAR
STARTCHAR six
ENCODING 54
SWIDTH 781 0
DWIDTH 19 0
BBX 17 22 1 -1
BITMAP
0000500000
006AAB9000
0285956800
1979569600
269AE96400
5A74058000
8D9AAA0000
9A64000000
9636AA4000
9625117400
9626AA8900
9621A96240
9625569980
9626A999C0
9634036580
D969066580
9896A899C0
666A5A5980
259155A700
0A2AAE5D00
01E405A000
001AA90000
ENDCHAR
STARTCHAR seven
ENCODING 55
SWIDTH 631 0
DWIDTH 15 0
BBX 15 20 0 0
BITMAP
15554444
15559D94
6AA9D964
00019670
6AA96760
00027650
00036590
000259C0
00059D80
0009D940
000D9640
00096700
00167600
00276500
00325900
00259C00
0059D800
009C9400
00896400
00967000
ENDCHAR
STARTCHAR eight
ENCODING 56
SWIDTH 808 0
DWIDTH 19 0
BBX 18 22 1 -1
BITMAP
0005540000
01AAAAE000
0A5AA91D00
25E555A340
662BFA5980
89D1559990
966AAA7260
962001A760
9A6AAA6260
89D155B990
662BFE8A80
25E5546680
9A5AAA8980
D9AAA96650
9665566760
9674026660
D99AAA7650
99A5569980
6645552580
19BAAA9600
0690006800
006BFA8000
ENDCHAR
STARTCHAR nine
ENCODING 57
SWIDTH 782 0
DWIDTH 19 0
BBX 18 22 0 -1
BITMAP
0000500000
006EAB9000
0295A56800
0969569600
1986B92980
3265559990
659AAA2260
69D8019620
6989559A70
2661A4DA70
265AA9DA70
0DA455DA70
075AA8DA70
00B959DA70
0005559670
0005066720
0016A9A650
006A5B9C80
0191547640
0A1AAA4900
01A401A400
001AAA4000
ENDCHAR
STARTCHAR colon
ENCODING 58
SWIDTH 262 0
DWIDTH 6 0
BBX 5 12 1 3
BITMAP
5500
6A00
AA40
5500
BF40
0000
0000
AA00
5500
BF40
5500
AA40
ENDCHAR
STARTCHAR semicolon
ENCODING 59
SWIDTH 261 0
DWIDTH 6 0
BBX 5 15 1 0
BITMAP
5500
6A00
AA40
5500
BF40
0000
0000
8500
DA40
DA40
9A40
1A40
B600
4600
A800
ENDCHAR
STARTCHAR less
ENCODING 60
SWIDTH 670 0
DWIDTH 16 0
BBX 14 18 1 1
BITMAP
00000010
000001E0
00006910
000B9690
01A46960
2E5A4690
91E5A460
691E5A40
9691A400
79694000
47947900
A5479690
A5B96910
0B9691A0
00691E50
0002E5A0
00001A40
00000070
ENDCHAR
STARTCHAR equal
ENCODING 61
SWIDTH 473 0
DWIDTH 11 0
BBX 10 12 1 3
BITMAP
555540
555540
AAAA90
155540
BFFFD0
000000
000000
AAAA90
555540
BFFFD0
555540
AAAA90
ENDCHAR
STARTCHAR greater
ENCODING 62
SWIDTH 670 0
DWIDTH 16 0
BBX 15 18 1 1
BITMAP
40000000
B8000000
96900000
696E0000
96E5A400
6E1A5B90
91A5B474
1A5B4690
01A1B964
001A5B90
06E1A5B4
696E1A50
4696E5A0
B8696E40
5B969000
A5B80000
5A400000
E0000000
ENDCHAR
STARTCHAR question
ENCODING 63
SWIDTH 693 0
DWIDTH 17 0
BBX 16 21 0 0
BITMAP
00014000
01AAAA00
191651D0
66A55A24
096BA588
02915A66
006AA662
000009A7
00005967
05899766
0589A999
05884698
058AA960
05895A80
05895400
05880000
05540000
0AA90000
06A80000
05540000
0BFD0000
ENDCHAR
STARTCHAR at
ENCODING 64
SWIDTH 1076 0
DWIDTH 26 0
BBX 25 23 0 -2
BITMAP
00006FAE900000
00069155690000
00286A5A968000
009786A9296000
0259B956A25800
06674000199900
08DD1AAA463600
16646555919940
23618A5A649D80
269265A5D869C0
65836609982580
658258069C2580
659265069C2580
265275A69C2580
23219A565A99C0
26646453355880
0CD90AA59AE240
0A668000A41900
025D6AA91AA400
00A69154000000
00296AFE000000
0006E555000000
00001AAA000000
ENDCHAR
STARTCHAR A
ENCODING 65
SWIDTH 936 0
DWIDTH 22 0
BBX 22 20 0 0
BITMAP
000044440000
0001D8C80000
000266990000
000227660000
00059A630000
000C8D9A4000
0019598D8000
002636698000
002656366000
005989663000
008994D9A400
01966098D800
026360659800
02659A636600
0598C5566300
08D9AFE99640
196655598D80
26366AA65980
366900022650
599C00016630
ENDCHAR
STARTCHAR B
ENCODING 66
SWIDTH 862 0
DWIDTH 21 0
BBX 19 20 1 0
BITMAP
5555555000
D55555A900
CAAAAA9280
D800005DA0
DAEAAAE260
DA55555998
DA7AAAA988
DA70002598
DA76AA9988
DA71551994
DA77FFF270
DA75555D98
DA7555A598
DA7000258C
DA77FF9988
DA71556994
DA76AA9630
DA76AAA890
DA71554740
DA77FFE800
ENDCHAR
STARTCHAR C
ENCODING 67
SWIDTH 852 0
DWIDTH 20 0
BBX 20 22 0 -1
BITMAP
0000050000
0002AAB900
00295A5680
0096956D64
02596A9289
0962941D66
099D6AE254
2666801980
3666000500
259C000000
69D8000000
69D8000000
6988000000
2698000000
2766000500
1669906980
0C9A1A9764
0665E5A996
018A554758
0065BAE8A0
000A541B40
00006AA400
ENDCHAR
STARTCHAR D
ENCODING 68
SWIDTH 886 0
DWIDTH 21 0
BBX 20 20 1 0
BITMAP
5555554000
D55556B400
CAAAAA5A00
D800017580
DAEAAB9A60
DA55556664
DA7AAA9CD8
DA70006598
DA70003269
DA70002765
DA70002725
DA70002765
DA70003659
DA7000998C
DA6FFE5998
DA5555A720
D9AAAA5D90
DAAAAAA680
C555551D00
FFFFFF9000
ENDCHAR
STARTCHAR E
ENCODING 69
SWIDTH 706 0
DWIDTH 17 0
BBX 15 20 1 0
BITMAP
45155554
DA755554
DA7AAAA8
DA700000
DA7AAAA8
DA700000
DA700000
DA700000
DA7AA400
DA700000
DA7AA400
DA755400
DA755400
DA700000
DA700000
DA755554
DA7AAAA8
DA7AAAA8
DA755554
DA7FFFF8
ENDCHAR
STARTCHAR F
ENCODING 70
SWIDTH 683 0
DWIDTH 16 0
BBX 15 20 1 0
BITMAP
45155554
DA755554
DA7AAAA4
DA700000
DA7AAAA4
DA700000
DA700000
DA700000
DA700000
DA7FFFF0
DA755550
DA7AAAA0
DA7AAAA0
DA755550
DA700000
DA700000
DA700000
DA700000
DA700000
DA700000
ENDCHAR
STARTCHAR G
ENCODING 71
SWIDTH 908 0
DWIDTH 22 0
BBX 21 22 0 -1
BITMAP
000005000000
0002AAB90000
00295A568000
0096956D6400
02596A928900
0962941D6600
099D6AE25400
266680198000
366600050000
259C00000000
69D800000000
69D800025880
699800025880
259C00025880
266600025880
2665905A5880
0CDA2A965880
0665A56E5880
029A15565880
00A5BABA5880
001A505A5880
00016AA40000
ENDCHAR
STARTCHAR H
ENCODING 72
SWIDTH 901 0
DWIDTH 22 0
BBX 20 20 1 0
BITMAP
4510000511
DA70001626
DA70001626
DA70001626
DA70001626
DA70001626
DA70001626
DA70001626
DA7AAAB626
DA70001626
DA7AAAA626
DA75556626
DA75556626
DA70001626
DA70001626
DA70001626
DA70001626
DA70001626
DA70001626
DA70001626
ENDCHAR
STARTCHAR I
ENCODING 73
SWIDTH 338 0
DWIDTH 8 0
BBX 6 20 1 0
BITMAP
4510
DA70
DA70
DA70
DA70
DA70
DA70
DA70
DA70
DA70
DA70
DA70
DA70
DA70
DA70
DA70
DA70
DA70
DA70
DA70
ENDCHAR
STARTCHAR J
ENCODING 74
SWIDTH 434 0
DWIDTH 10 0
BBX 10 21 0 -1
BITMAP
011140
027650
027650
027650
027650
027650
027650
027650
027650
027650
027650
027650
027650
027690
066690
6999C0
565980
556600
6B9900
01A400
7A4000
ENDCHAR
STARTCHAR K
ENCODING 75
SWIDTH 815 0
DWIDTH 20 0
BBX 18 20 1 0
BITMAP
4510011110
DA70036660
DA70099980
DA70099980
DA70266600
DA70266600
DA70999800
DA70999800
DA72667000
DA72666000
DA76599000
DA72326000
DA71966400
DA708C9800
DA70659900
DA70232600
DA70196640
DA7008C980
DA70066990
DA70027360
ENDCHAR
STARTCHAR L
ENCODING 76
SWIDTH 604 0
DWIDTH 15 0
BBX 13 20 1 0
BITMAP
45100000
DA700000
DA700000
DA700000
DA700000
DA700000
DA700000
DA700000
DA700000
DA700000
DA700000
DA700000
DA700000
DA700000
DA700000
DA755500
DA7AAA40
DA7AAA40
DA755540
DA7FFF80
ENDCHAR
STARTCHAR M
ENCODING 77
SWIDTH 920 0
DWIDTH 22 0
BBX 20 20 1 0
BITMAP
4440000111
E990000667
F36000098F
D9640019A7
C8CC002333
D669006597
DA7300CDA7
D999416667
D999C32667
DA666999A7
DA666499A7
DA599A65A7
DA699969A7
DA72669DA7
DA72668DA7
DA70000DA7
DA70000DA7
DA70000DA7
DA70000DA7
DA70000DA7
ENDCHAR
STARTCHAR N
ENCODING 78
SWIDTH 877 0
DWIDTH 21 0
BBX 19 20 1 0
BITMAP
4444001144
E66600369C
E66640369C
C99980369C
C99990369C
D66370369C
D99998369C
D99999369C
DA7276369C
DA5999669C
DA5999969C
DA6666669C
DA7266659C
DA70CCDC9C
DA7066669C
DA7026665C
DA7009998C
DA7009999C
DA7002237C
DA7001999C
ENDCHAR
STARTCHAR O
ENCODING 79
SWIDTH 933 0
DWIDTH 22 0
BBX 22 22 0 -1
BITMAP
000005000000
0002AAB90000
00295A568000
0096956D6400
02596A928900
0962955D6300
099D6AA65980
2666801D99C0
366600066690
259C00026360
69D80001A760
69D80001A620
69880001A760
269800027650
276600066590
166990698D80
0C9A1A976640
0665E5A89600
018A55475800
0065BAA9A000
000A555B4000
00006AA40000
ENDCHAR
STARTCHAR P
ENCODING 80
SWIDTH 850 0
DWIDTH 20 0
BBX 19 20 1 0
BITMAP
5555554000
D55555A800
CAAAAA9640
D800006890
DAEAABD660
DA55556664
DA7AAA9C94
DA700069D8
DA700059D8
DA77FF9D94
DA71557660
DA76AA9A60
DA76AAB5C0
DA71555B00
DA76AAE400
DA70000000
DA70000000
DA70000000
DA70000000
DA70000000
ENDCHAR
STARTCHAR Q
ENCODING 81
SWIDTH 937 0
DWIDTH 23 0
BBX 22 24 0 -3
BITMAP
000005000000
0002AAB90000
00295A568000
0096956D6400
02596A928900
0962955D6300
099D6AA65980
2666801D99C0
366600066690
259C00026360
69D80001A760
69D80001A620
69880019A760
2698009A7650
276606666590
166991698D80
0C9A1A976640
0665E5A89600
018A55475800
0065BAA9A400
000A555B5600
00006AA56600
000000019400
000000004000
ENDCHAR
STARTCHAR R
ENCODING 82
SWIDTH 843 0
DWIDTH 20 0
BBX 19 20 1 0
BITMAP
5555554000
D55555A800
CAAAAA9640
D800006890
DAEAABD660
DA55556664
DA7AAADD94
DA70005898
DA75559C94
DA76A95964
DA76AAE670
DA71551990
DA77FF9680
DA71556D00
DA76ABB600
DA70096700
DA70099640
DA70059980
DA700659C0
DA70036590
ENDCHAR
STARTCHAR S
ENCODING 83
SWIDTH 682 0
DWIDTH 16 0
BBX 16 22 0 -1
BITMAP
00014000
006AAA80
02869468
09A95A95
269AE964
36744580
659AA900
69C80000
658AA500
36655680
265BF970
0CA55698
0756A998
00BA9665
00016636
00102676
015AA765
01A56D99
0A555698
65BAA960
0A900680
006AA900
ENDCHAR
STARTCHAR T
ENCODING 84
SWIDTH 591 0
DWIDTH 14 0
BBX 14 20 0 0
BITMAP
15555540
15555540
6AAAAA90
00000000
6AFFFA90
00DA7000
00DA7000
00DA7000
00DA7000
00DA7000
00DA7000
00DA7000
00DA7000
00DA7000
00DA7000
00DA7000
00DA7000
00DA7000
00DA7000
00DA7000
ENDCHAR
STARTCHAR U
ENCODING 85
SWIDTH 905 0
DWIDTH 22 0
BBX 20 21 1 -1
BITMAP
4510000511
9A70001A76
9A70001A76
9A70001A76
9A70001A76
9A70001A76
9A70001A76
9A70001A76
9A70001A76
9A70001A76
9A70001A76
9A70001A76
DA60001676
8998003665
599A41D998
3365A92998
199B96D620
0A74556990
0296EB9640
0079016800
0006AA4000
ENDCHAR
STARTCHAR V
ENCODING 86
SWIDTH 940 0
DWIDTH 23 0
BBX 22 20 0 0
BITMAP
544400005510
669800026360
236600036690
1663000699C0
0D9A4009C980
098D8009A640
065980267200
023660366900
016630699C00
0099649C9800
0098D8996400
00659A672000
002263265000
00166699C000
000989C98000
000999964000
000666620000
000332650000
0001A5980000
0000DC980000
ENDCHAR
STARTCHAR W
ENCODING 87
SWIDTH 1161 0
DWIDTH 28 0
BBX 27 20 0 0
BITMAP
44440144401114
6988058DC03658
3698089A90658C
23690DA6609898
16361A637089A4
19632627649A60
0D96226999A620
09D96699CE6260
059D698E9B2690
0259989A6669C0
0325C9A6369C80
0261967A69C940
01A5676D9C9640
00967658D96700
008B6599A67600
009659C6776500
00659D83365900
0029D942659C00
002D9601D8D800
00296300C9A400
ENDCHAR
STARTCHAR X
ENCODING 88
SWIDTH 876 0
DWIDTH 21 0
BBX 21 20 0 0
BITMAP
555500111100
326600666600
199980CCC800
099992666400
066666666000
02665D888000
00C8A6664000
006666660000
002599990000
000999980000
000762640000
000999990000
001999A30000
003333598000
009999999000
01999A626000
026661999800
066660999900
099980666600
266640266640
ENDCHAR
STARTCHAR Y
ENCODING 89
SWIDTH 789 0
DWIDTH 19 0
BBX 19 20 0 0
BITMAP
4450004444
6598009960
266901A660
1A66026580
099A469980
0699899A40
0265996600
01A6266900
0099659800
005999A400
0026966000
0016665000
000A598000
0009994000
0005894000
0005894000
0005894000
0005894000
0005894000
0005894000
ENDCHAR
STARTCHAR Z
ENCODING 90
SWIDTH 854 0
DWIDTH 21 0
BBX 19 20 1 0
BITMAP
5555555554
55555555B4
AAAAAAA190
0000000A64
AAAAA96590
5555429A64
AAA9196590
0000A69A64
0006596590
0029A69A00
0196596400
0A69A68000
6597590000
9A69A00000
65D64BFFF4
9A68555550
7592AAAAA4
9A6AAAAAA4
6455555550
FFFFFFFFF4
ENDCHAR
STARTCHAR bracketleft
ENCODING 91
SWIDTH 320 0
DWIDTH 8 0
BBX 6 23 1 -2
BITMAP
5550
EAA0
CAA0
D950
D9F0
DA40
DA40
DA40
DA40
DA40
DA40
DA40
DA40
DA40
DA40
DA40
DA40
DA40
DAA0
D850
DEA0
C000
AAA0
ENDCHAR
STARTCHAR backslash
ENCODING 92
SWIDTH 448 0
DWIDTH 11 0
BBX 10 23 0 -3
BITMAP
444000
698000
269000
226000
263000
1A6000
09A400
089800
098C00
069800
036900
023600
026300
01A600
00DA40
008D80
0098C0
006980
003690
002360
002630
001A60
000410
ENDCHAR
STARTCHAR bracketright
ENCODING 93
SWIDTH 319 0
DWIDTH 8 0
BBX 7 23 0 -2
BITMAP
1550
6AA8
6A98
15D8
7DD8
09D8
09D8
09D8
09D8
09D8
09D8
09D8
09D8
09D8
09D8
09D8
09D8
09D8
29D8
14D8
6AD8
0018
6AA4
ENDCHAR
STARTCHAR asciicircum
ENCODING 94
SWIDTH 475 0
DWIDTH 11 0
BBX 10 10 1 7
BITMAP
026400
069800
099C00
0D6900
1A7200
272640
260980
9909C0
D80690
440110
ENDCHAR
STARTCHAR underscore
ENCODING 95
SWIDTH 511 0
DWIDTH 12 0
BBX 10 5 1 -5
BITMAP
BFFFF0
555550
6AAAA0
AAAAA0
555550
ENDCHAR
STARTCHAR grave
ENCODING 96
SWIDTH 472 0
DWIDTH 11 0
BBX 9 6 1 17
BITMAP
140000
5A4000
B4A400
074A40
007880
000600
ENDCHAR
STARTCHAR a
ENCODING 97
SWIDTH 832 0
DWIDTH 20 0
BBX 19 19 0 -1
BITMAP
0000550000
001A9AE000
00A1A95A00
035E55A680
09A6BA5990
199914A720
2322AB5994
26990099D8
69C8006588
69D800369C
69D800369C
259800369C
366655769C
195969369C
0996AA769C
036955769C
00A1AA369C
001A56769C
0001550000
ENDCHAR
STARTCHAR b
ENCODING 98
SWIDTH 720 0
DWIDTH 17 0
BBX 16 17 1 0
BITMAP
BFFFFA40
C55550A0
DEAAAB68
D9555598
DA955665
DA400225
DA6AAA69
DA40018C
DA7FFF68
DA5555C8
DA6AAA69
DA400225
DA555665
DA6AA598
DA6AAB58
DA5554A0
DA7FFE40
ENDCHAR
STARTCHAR c
ENCODING 99
SWIDTH 736 0
DWIDTH 18 0
BBX 17 19 0 -1
BITMAP
0001AA4000
002E55B400
0096FE9A00
0369146580
09A6AA9A00
1999696400
2362968000
2699004000
6998000000
69D8000000
6998000000
2599000000
2267428000
1A58A96400
0996969A00
0669556980
01D6EB9600
0029416800
0001AA4000
ENDCHAR
STARTCHAR d
ENCODING 100
SWIDTH 833 0
DWIDTH 20 0
BBX 19 17 1 0
BITMAP
BFFFFA4000
C555517400
DEAAAB8A00
D9AA957640
DA95569D80
DA6AA96660
DA70066630
DA70009A60
DA7000C964
DA70009A60
DA70026630
DA6FF96660
DA55568990
D9AAA96680
DAAAAA9A00
C555546800
FFFFFA8000
ENDCHAR
STARTCHAR e
ENCODING 101
SWIDTH 666 0
DWIDTH 16 0
BBX 14 17 1 0
BITMAP
996FFFF0
DA755550
DA7AAAA0
DA7AAAA0
DA755550
DA700000
DA7AAA90
DA755550
DA7FFFE0
DA755540
DA7AAA90
DA700000
DA755550
DA7AAAA0
DA7AAAA0
DA755550
DA7FFFF0
ENDCHAR
STARTCHAR f
ENCODING 102
SWIDTH 625 0
DWIDTH 15 0
BBX 14 17 1 0
BITMAP
996FFFD0
DA755540
DA7AAA80
DA7AAA80
DA755540
DA700000
DA700000
DA7AAA40
DA755540
DA755540
DA7AAA40
DA700000
DA700000
DA700000
DA700000
DA700000
DA700000
ENDCHAR
STARTCHAR g
ENCODING 103
SWIDTH 827 0
DWIDTH 20 0
BBX 19 19 0 -1
BITMAP
0001AA4000
002E55B400
0096FE9A00
0369146580
09A6AA9A00
1999696400
2362968000
2699004000
6998000000
69D8001544
699800269C
259900269C
226741A69C
1A58AA669C
099696E69C
066955669C
01D6EBA69C
002941669C
0001AA4000
ENDCHAR
STARTCHAR h
ENCODING 104
SWIDTH 830 0
DWIDTH 20 0
BBX 18 17 1 0
BITMAP
9960009620
DA70009620
DA70009620
DA70009620
DA70009620
DA70009620
DA7FFF9620
DA75559620
DA7AAA9620
DA7AAA9620
DA75559620
DA70009620
DA70009620
DA70009620
DA70009620
DA70009620
DA70009620
ENDCHAR
STARTCHAR i
ENCODING 105
SWIDTH 337 0
DWIDTH 8 0
BBX 6 17 1 0
BITMAP
9960
DA70
DA70
DA70
DA70
DA70
DA70
DA70
DA70
DA70
DA70
DA70
DA70
DA70
DA70
DA70
DA70
ENDCHAR
STARTCHAR j
ENCODING 106
SWIDTH 393 0
DWIDTH 9 0
BBX 9 20 0 -3
BITMAP
058940
098940
098940
098940
098940
098940
098940
098940
098940
098940
098940
098940
09DA40
699640
576300
799900
065800
64A000
1B4000
540000
ENDCHAR
STARTCHAR k
ENCODING 107
SWIDTH 801 0
DWIDTH 19 0
BBX 18 17 1 0
BITMAP
9960022660
DA70099980
DA70099980
DA70266200
DA70666900
DA70989800
DA719A6400
DA72666000
DA76599000
DA72666000
DA71666400
DA70899800
DA70659900
DA70266600
DA70199640
DA70099880
DA70026650
ENDCHAR
STARTCHAR l
ENCODING 108
SWIDTH 583 0
DWIDTH 14 0
BBX 13 17 1 0
BITMAP
99600000
DA700000
DA700000
DA700000
DA700000
DA700000
DA700000
DA700000
DA700000
DA700000
DA700000
DA700000
DA755500
DA7AAA00
DA7AAA00
DA755500
DA7FFF40
ENDCHAR
STARTCHAR m
ENCODING 109
SWIDTH 1167 0
DWIDTH 28 0
BBX 26 18 1 0
BITMAP
001AA401AA4000
02955BA945A800
096FF9B6BF9600
2695566D156980
667AA99BAA9990
8C969626696360
DA656967559670
96700DA700DA70
96700DA700DA60
96700DA700DA60
96700DA700DA60
96700DA700DA60
96700DA700DA60
96700DA700DA60
96700DA700DA60
96700DA700DA60
96700DA700DA60
96700DA700DA60
ENDCHAR
STARTCHAR n
ENCODING 110
SWIDTH 787 0
DWIDTH 19 0
BBX 17 17 1 0
BITMAP
9999005880
E666005880
E666405880
CCCCC05880
DA66605880
DA66605880
D999985880
D999995880
DA73365880
DA5A669880
DA4CCCC880
DA46666880
DA42666480
DA41999880
DA40999980
DA40333780
DA40199A80
ENDCHAR
STARTCHAR o
ENCODING 111
SWIDTH 833 0
DWIDTH 20 0
BBX 20 19 0 -1
BITMAP
0001AA4000
002E55B400
0096FE8A00
0369146580
09A6AA8A60
1999696664
2362969998
269900659C
6998003658
69D8002259
6998003258
259900659C
2267469898
1A58A96664
0996969A60
0669556980
01D6EB9600
0029416800
0001AA4000
ENDCHAR
STARTCHAR p
ENCODING 112
SWIDTH 781 0
DWIDTH 19 0
BBX 17 17 1 0
BITMAP
BFFFFE4000
C555557400
DEAAAB9900
D9AAA56700
DA95569980
DA6AA99880
DA700369C0
DA76AA59C0
DA7155CD80
DA77FA2640
DA71559600
DA76A96800
DA76AAD000
DA71540000
DA70000000
DA70000000
DA70000000
ENDCHAR
STARTCHAR q
ENCODING 113
SWIDTH 788 0
DWIDTH 19 0
BBX 18 20 0 -3
BITMAP
001AFFFFE0
00A5555520
075EAAAB20
0DA56AA620
2659556620
3666AA9620
6999009620
69D8009620
69D8009620
259A559620
3265559620
199BA99620
0964019620
029AA99620
00B9559620
0005699620
0000009620
0000009620
0000009620
0000005510
ENDCHAR
STARTCHAR r
ENCODING 114
SWIDTH 831 0
DWIDTH 20 0
BBX 18 17 1 0
BITMAP
BFFFFFA000
C555555A00
DEAAAAA680
D9AAA95990
DA9555A360
DA6AAA5A60
DA7000C960
DA76AA9960
DA70006670
DA76AA99A0
DA755565C0
DA75555B00
DA76AABC00
DA70369800
DA70166600
DA70096700
DA70099A40
ENDCHAR
STARTCHAR s
ENCODING 115
SWIDTH 683 0
DWIDTH 16 0
BBX 16 19 0 -1
BITMAP
00015000
01BAAB90
0656A568
19A55695
325BF964
65900180
69800000
266AA500
268556D0
1D6FF924
06954188
005AAA65
00000276
01400726
096EF999
16941698
295AA460
02E96B40
00055000
ENDCHAR
STARTCHAR t
ENCODING 116
SWIDTH 588 0
DWIDTH 14 0
BBX 14 17 0 0
BITMAP
7FFFFFD0
15555540
6AAAAA90
2AAAAA90
15956540
00DA7000
00DA7000
00DA7000
00DA7000
00DA7000
00DA7000
00DA7000
00DA7000
00DA7000
00DA7000
00DA7000
00DA7000
ENDCHAR
STARTCHAR u
ENCODING 117
SWIDTH 795 0
DWIDTH 19 0
BBX 17 18 1 -1
BITMAP
9620022580
9A70022580
9A70022580
9A70022580
9A70022580
9A70022580
9A70022580
9A70022580
9A70022580
9A70032580
9A60026980
8D99199880
59A2A69940
266A5A6200
19A5559900
065AA96400
01A4069000
001AA90000
ENDCHAR
STARTCHAR v
ENCODING 118
SWIDTH 855 0
DWIDTH 21 0
BBX 20 17 0 0
BITMAP
5988001662
3669002726
2636002699
19660099C8
089980D9A4
0598C1A670
0265927260
0262626990
0196699C80
00898C9940
00599A6700
0026272600
0026265900
001999C800
000CC99400
0006966000
0003726000
ENDCHAR
STARTCHAR w
ENCODING 119
SWIDTH 1129 0
DWIDTH 27 0
BBX 25 18 1 -1
BITMAP
96201625022580
9A701625022580
9A701625022580
9A701625022580
9A701625022580
9A701625022580
9A701625022580
9A701625022580
9A701625022580
9A701625022580
9A701626036580
D969636B5A69C0
98D5599D55D980
666EA59AAE6640
25D01A7901D600
0A5AA5E6A92800
01E56E6E56D000
00155001550000
ENDCHAR
STARTCHAR x
ENCODING 120
SWIDTH 790 0
DWIDTH 19 0
BBX 19 17 0 0
BITMAP
6222022224
2669899660
0CC9999CC0
0666326640
0265966600
00CD9CCC00
0062666400
0026666000
000CCC9000
002666A000
0066672400
00CC99CC00
0266996600
0666336640
0C999999C0
2699899960
6733033364
ENDCHAR
STARTCHAR y
ENCODING 121
SWIDTH 733 0
DWIDTH 18 0
BBX 17 17 0 0
BITMAP
5994026580
2698069980
1666099600
09965A6600
0599A65900
0266699800
016699A400
0089966000
0056669000
0022598000
001D9A4000
000DA70000
000DA70000
000DA70000
000DA70000
000DA70000
000DA70000
ENDCHAR
STARTCHAR z
ENCODING 122
SWIDTH 714 0
DWIDTH 17 0
BBX 17 17 0 0
BITMAP
3FFFD88840
1555266540
2AAA666200
1555C99900
1556599800
0006732000
0009999000
0019998000
0033360000
0099A60000
0199880000
0326640000
0966655500
18CCDAAA00
26665AAA00
6666155500
4CD9BFFF40
ENDCHAR
STARTCHAR braceleft
ENCODING 123
SWIDTH 396 0
DWIDTH 10 0
BBX 9 26 0 -5
BITMAP
000140
006A80
018680
027540
099B80
089800
0D9400
0DA400
0DA400
0DA400
0DA400
15A400
6A6000
659000
1A2000
766000
0DA400
0DA400
0DA400
0DA400
0D9400
089900
099680
022940
019540
006E80
ENDCHAR
STARTCHAR bar
ENCODING 124
SWIDTH 266 0
DWIDTH 6 0
BBX 5 23 1 -3
BITMAP
4500
DA40
DA40
DA40
DA40
DA40
DA40
DA40
DA40
DA40
DA40
DA40
DA40
DA40
DA40
DA40
DA40
DA40
DA40
DA40
DA40
DA40
4540
ENDCHAR
STARTCHAR braceright
ENCODING 125
SWIDTH 396 0
DWIDTH 10 0
BBX 9 26 0 -5
BITMAP
140000
6A8000
696000
169800
799800
026900
022500
022500
022500
022500
022600
026680
019A40
00A140
025B80
022500
022500
022500
022500
022500
022500
066900
689800
1B5800
14A000
6A4000
ENDCHAR
STARTCHAR asciitilde
ENCODING 126
SWIDTH 665 0
DWIDTH 16 0
BBX 14 5 1 13
BITMAP
1AAAA150
64000260
8BAAA920
98555590
546AA500
ENDCHAR
STARTCHAR uni00A0
ENCODING 160
SWIDTH 108 0
DWIDTH 3 0
BBX 1 1 0 0
BITMAP
00
ENDCHAR
STARTCHAR exclamdown
ENCODING 161
SWIDTH 336 0
DWIDTH 8 0
BBX 6 21 1 -1
BITMAP
4510
DA60
DA60
DA60
DA60
DA60
DA60
DA60
DA60
DA60
DA60
DA60
DA60
DA60
9960
0000
5550
5550
AAA0
0000
BFF0
ENDCHAR
STARTCHAR cent
ENCODING 162
SWIDTH 708 0
DWIDTH 17 0
BBX 17 24 0 -2
BITMAP
0001440000
00014C0000
00014C0000
0001650000
002A56D000
0196B95900
062901A740
0C96AA6900
2668559400
32679A5000
259C014000
69D8000000
69D8000000
259C010000
3667575000
2669A49000
0C97AA5800
066955A640
0196FE5D00
006955A000
0005A90000
00014C0000
00014C0000
00014C0000
ENDCHAR
STARTCHAR sterling
ENCODING 163
SWIDTH 689 0
DWIDTH 17 0
BBX 15 21 1 0
BITMAP
00054000
01BAAE40
0A5655A0
25E55A58
662BA590
9CD11600
D96AA800
9A700000
9A700000
9A755540
9A755540
9A76AA40
9A700000
9A7BFF80
9A700000
9A700000
9A755500
9A7AAA40
9A7AAA40
9A755540
9A7FFF80
ENDCHAR
STARTCHAR currency
ENCODING 164
SWIDTH 715 0
DWIDTH 17 0
BBX 17 19 0 -1
BITMAP
0180006000
0990018800
6630426640
29AEAE6600
09A1959800
02595A6000
0660026400
098000D800
09C0008800
08C0009C00
09C000C800
0690019800
0264066000
099AE89800
19A95B9900
3666A63640
19A0019800
058000A400
0000001000
ENDCHAR
STARTCHAR yen
ENCODING 165
SWIDTH 796 0
DWIDTH 19 0
BBX 18 20 1 0
BITMAP
5110005110
9660026690
99A4069980
2598099A40
2669096600
1966266900
099A659800
069999A400
0265966000
01A6665000
009A698000
0065994000
0029A60000
001A760000
1FE626FD00
0556265400
0A9626A900
0016260000
0016260000
0016260000
ENDCHAR
STARTCHAR brokenbar
ENCODING 166
SWIDTH 263 0
DWIDTH 6 0
BBX 5 23 1 -3
BITMAP
4500
DA40
DA40
DA40
DA40
DA40
DA40
DA40
DA40
9940
0000
0000
0000
9540
DA40
DA40
DA40
DA40
DA40
DA40
DA40
DA40
4500
ENDCHAR
STARTCHAR section
ENCODING 167
SWIDTH 108 0
DWIDTH 3 0
BBX 1 1 0 0
BITMAP
00
ENDCHAR
STARTCHAR dieresis
ENCODING 168
SWIDTH 556 0
DWIDTH 13 0
BBX 12 4 1 17
BITMAP
450110
9A4225
9A4225
410110
ENDCHAR
STARTCHAR copyright
ENCODING 169
SWIDTH 869 0
DWIDTH 21 0
BBX 20 20 0 1
BITMAP
0000040000
0006FFE400
007E406E00
01E00002D0
0741BF90B0
0E0795B828
1C1D001D1D
283400000A
34B0000007
70A0000007
70A0000007
30A0000007
3470000007
283800000A
1C1D001D1D
0A07E5B428
03806E80B0
01E00002D0
002E406E00
0006FFE400
ENDCHAR
STARTCHAR ordfeminine
ENCODING 170
SWIDTH 833 0
DWIDTH 20 0
BBX 19 19 0 -1
BITMAP
0000550000
001A9AA400
00A5A95A00
025A55A680
0966BA59A0
1999146260
2666EB9998
365A009988
259C003698
6988003258
2588002258
3699002258
2666956258
1999692258
09A6AA6258
0259556258
00A1AA6258
001A566258
0000550000
ENDCHAR
STARTCHAR guillemotleft
ENCODING 171
SWIDTH 911 0
DWIDTH 22 0
BBX 20 12 1 3
BITMAP
0000400006
001A400069
01A5901B86
691A41A5B9
9691951A5A
696902E5A4
4694056E50
A54686956E
A4794696E1
0B96806D1A
00690001A4
0001C0001A
ENDCHAR
STARTCHAR logicalnot
ENCODING 172
SWIDTH 718 0
DWIDTH 17 0
BBX 16 8 1 5
BITMAP
AAAAAA54
55555669
BFFFFE69
55555669
AAAAAA69
00000269
00000269
00000259
ENDCHAR
STARTCHAR registered
ENCODING 174
SWIDTH 869 0
DWIDTH 21 0
BBX 20 20 0 1
BITMAP
0000040000
0006FFE400
007E406E00
01E00002D0
07400000B0
0E06AA9028
1C0755B41D
2807002C0A
3407001C07
7007002807
7007AAF007
3007978007
340702C007
280700D00A
1C0700B01D
0A07003428
03800000B0
01E00002D0
002E406E00
0006FFE400
ENDCHAR
STARTCHAR degree
ENCODING 176
SWIDTH 330 0
DWIDTH 8 0
BBX 6 7 1 18
BITMAP
1A40
9560
A5A0
A0A0
9A60
6590
0500
ENDCHAR
STARTCHAR plusminus
ENCODING 177
SWIDTH 598 0
DWIDTH 14 0
BBX 13 16 1 0
BITMAP
00100000
02769000
02769000
02769000
AB76BA40
02769000
AB76AA40
5676A540
5676A540
02769000
02769000
02255000
15555500
15555500
6AAAAA00
15555400
ENDCHAR
STARTCHAR uni00B2
ENCODING 178
SWIDTH 435 0
DWIDTH 10 0
BBX 10 16 0 4
BITMAP
015400
2A9A80
06A9A0
154760
000360
000990
001980
002600
009900
026400
066000
098000
264000
6AAA80
000000
6AAA80
ENDCHAR
STARTCHAR uni00B3
ENCODING 179
SWIDTH 515 0
DWIDTH 12 0
BBX 12 17 0 3
BITMAP
055400
7A5B40
16A4A0
255664
1AB9C8
000698
00059C
02AB98
015564
015688
02A965
000276
055636
05A5A9
2AAB58
1550A0
2BFA40
ENDCHAR
STARTCHAR acute
ENCODING 180
SWIDTH 472 0
DWIDTH 11 0
BBX 9 6 1 17
BITMAP
000600
006940
069680
696800
968000
180000
ENDCHAR
STARTCHAR uni00B5
ENCODING 181
SWIDTH 802 0
DWIDTH 19 0
BBX 18 20 1 -3
BITMAP
8960026650
DA60027690
DA60027690
DA60027690
DA60027690
DA60027690
DA60027690
DA60027690
DA60027690
DA60027690
DA60032590
DA64199980
DA66A59980
DA655A6640
DA65559A00
DA66AE2800
DA6146D000
DA66E90000
DA60000000
4550000000
ENDCHAR
STARTCHAR paragraph
ENCODING 182
SWIDTH 676 0
DWIDTH 16 0
BBX 15 20 0 -3
BITMAP
002BFFFC
02955548
0A6AAA98
1995A958
27695658
2696A258
69882258
259EB258
36656258
265BF258
0DA57258
0756B258
00BAB258
00057258
00002258
00002258
00002258
00002258
00002668
00001968
ENDCHAR
STARTCHAR periodcentered
ENCODING 183
SWIDTH 260 0
DWIDTH 6 0
BBX 5 5 1 9
BITMAP
6A00
5500
AA40
0000
AA40
ENDCHAR
STARTCHAR cedilla
ENCODING 184
SWIDTH 321 0
DWIDTH 8 0
BBX 6 8 1 -9
BITMAP
0250
2A60
A1A0
8E90
D800
8E90
A150
2F90
ENDCHAR
STARTCHAR uni00B9
ENCODING 185
SWIDTH 359 0
DWIDTH 9 0
BBX 8 14 0 6
BITMAP
1555
1555
6AA9
0276
0276
0276
0276
0276
0276
0276
0276
0276
0276
0276
ENDCHAR
STARTCHAR ordmasculine
ENCODING 186
SWIDTH 835 0
DWIDTH 20 0
BBX 20 19 0 -1
BITMAP
0001AA4000
001E55B800
0096BE9600
0259146980
09A6AA9A60
1999696664
26669688C8
3659006698
258C002269
6988002769
258C002269
2699006698
276641D988
19996A2664
0996969660
0369556980
0196EB9640
0029416800
0001AA4000
ENDCHAR
STARTCHAR guillemotright
ENCODING 187
SWIDTH 912 0
DWIDTH 22 0
BBX 20 12 1 3
BITMAP
8000050000
690001E400
96E0065A40
6E1A41A469
91A5964B96
1A5B80B969
05B9501691
B95682915E
5B9681691A
A5B9079690
5A40006900
E400064000
ENDCHAR
STARTCHAR onequarter
ENCODING 188
SWIDTH 1236 0
DWIDTH 30 0
BBX 29 23 0 -3
BITMAP
1555001110000000
5555002760000000
6AA9003650000000
0265006580000000
02250059C0055400
0225009D80266000
022500D940366000
0225019600999000
0225016700D98000
0225027602664000
0225036503361200
0225065806992200
0225059C08882200
022509D80AAAAA80
00000D9400000000
000019600AAAAA80
0000167005555540
0000276005556640
0000365000002200
0000658000002200
000059C000000000
00009D8000000000
0000440000000000
ENDCHAR
STARTCHAR onehalf
ENCODING 189
SWIDTH 1154 0
DWIDTH 28 0
BBX 27 23 0 -3
BITMAP
15550011100000
55550027600000
6AA90036500000
02650065800000
02250059C00400
0225009D86AAA0
022500D9415968
022501960655CC
0225016700009C
02250276000198
02250365000260
02250658000990
0225059C001A80
022509D8006600
00000D94009C00
00001960026400
00001670066000
000027600AAAA4
00003650055550
000065800FFFF4
000059C0000000
00009D80000000
00004400000000
ENDCHAR
STARTCHAR threequarters
ENCODING 190
SWIDTH 1345 0
DWIDTH 32 0
BBX 32 23 0 -3
BITMAP
0554000015400000
7A5B400059800000
1AA4A0009C800000
25576400C9400000
1AB9C8009A405440
000598016700C980
0005980272016640
02AB980325033200
0154640269069900
015688059C0CCC00
02A96509C819A494
0006760C94273094
15563609A4655094
05A59916706AAAAA
2AAB582720000000
1551A032506AAAAA
2BFA402590555555
00000059C0555599
0000009C80000094
000000C940000094
0000009640000000
0000016700000000
0000001100000000
ENDCHAR
STARTCHAR questiondown
ENCODING 191
SWIDTH 693 0
DWIDTH 17 0
BBX 16 21 0 0
BITMAP
00014000
01AAAA00
191651D0
66A55A24
096BA588
02915A66
006AA662
000009A7
00005967
05899766
0589A999
05884698
058AA960
05895A80
05895400
05880000
05540000
0AA90000
06A80000
05540000
0BFD0000
ENDCHAR
STARTCHAR Agrave
ENCODING 192
SWIDTH 936 0
DWIDTH 22 0
BBX 22 27 0 0
BITMAP
002400000000
005A40000000
00A5A4000000
000A5A400000
0000A5800000
00000A000000
000000000000
000044440000
0001D8C80000
000266990000
000227660000
00059A630000
000C8D9A4000
0019598D8000
002636698000
002656366000
005989663000
008994D9A400
01966098D800
026360659800
02659A636600
0598C5566300
08D9AFE99640
196655598D80
26366AA65980
366900022650
599C00016630
ENDCHAR
STARTCHAR Aacute
ENCODING 193
SWIDTH 936 0
DWIDTH 22 0
BBX 22 27 0 0
BITMAP
000000005000
000000074400
00000074A400
00000B5A4000
000015A40000
000002400000
000000000000
000044440000
0001D8C80000
000266990000
000227660000
00059A630000
000C8D9A4000
0019598D8000
002636698000
002656366000
005989663000
008994D9A400
01966098D800
026360659800
02659A636600
0598C5566300
08D9AFE99640
196655598D80
26366AA65980
366900022650
599C00016630
ENDCHAR
STARTCHAR Acircumflex
ENCODING 194
SWIDTH 936 0
DWIDTH 22 0
BBX 22 27 0 0
BITMAP
000018800000
000029800000
000026600000
000056300000
000089A40000
000194980000
000000000000
000044440000
0001D8C80000
000266990000
000227660000
00059A630000
000C8D9A4000
0019598D8000
002636698000
002656366000
005989663000
008994D9A400
01966098D800
026360659800
02659A636600
0598C5566300
08D9AFE99640
196655598D80
26366AA65980
366900022650
599C00016630
ENDCHAR
STARTCHAR Atilde
ENCODING 195
SWIDTH 936 0
DWIDTH 22 0
BBX 22 26 0 0
BITMAP
000AAAA05400
00740002A400
0097AAAA2000
008855559000
00446AA50000
000000000000
000044440000
0001D8C80000
000266990000
000227660000
00059A630000
000C8D9A4000
0019598D8000
002636698000
002656366000
005989663000
008994D9A400
01966098D800
026360659800
02659A636600
0598C5566300
08D9AFE99640
196655598D80
26366AA65980
366900022650
599C00016630
ENDCHAR
STARTCHAR Adieresis
ENCODING 196
SWIDTH 936 0
DWIDTH 22 0
BBX 22 25 0 0
BITMAP
000110144000
00162069C000
00162069C000
000110004000
000000000000
000044440000
0001D8C80000
000266990000
000227660000
00059A630000
000C8D9A4000
0019598D8000
002636698000
002656366000
005989663000
008994D9A400
01966098D800
026360659800
02659A636600
0598C5566300
08D9AFE99640
196655598D80
26366AA65980
366900022650
599C00016630
ENDCHAR
STARTCHAR Aring
ENCODING 197
SWIDTH 936 0
DWIDTH 22 0
BBX 22 26 0 0
BITMAP
00001A800000
000066600000
000095940000
0000A0940000
00009AA00000
000025900000
000049440000
0001D8C80000
000266990000
000227660000
00059A630000
000C8D9A4000
0019598D8000
002636698000
002656366000
005989663000
008994D9A400
01966098D800
026360659800
02659A636600
0598C5566300
08D9AFE99640
196655598D80
26366AA65980
366900022650
599C00016630
ENDCHAR
STARTCHAR AE
ENCODING 198
SWIDTH 1198 0
DWIDTH 29 0
BBX 28 20 0 0
BITMAP
00004445555555
0001D9CD555555
0002669AAAAAAA
00022766000000
00059A67EAAAAA
00088D9A400000
0019598D800000
00262669900000
002656367AAAA4
005989A6700000
008D94D9AEAAA4
01966098D95554
02636066995550
03669A63650000
0598C556660000
08D9AFED9A5555
19A655598DEAAA
26366AA659EAA9
3669000236A555
699C0001667FFE
ENDCHAR
STARTCHAR Ccedilla
ENCODING 199
SWIDTH 852 0
DWIDTH 20 0
BBX 20 29 0 -8
BITMAP
0000050000
0002AAB900
00295A5680
0096956D64
02596A9289
0962941D66
099D6AE254
2666801980
3666000500
259C000000
69D8000000
69D8000000
6988000000
2698000000
2766000500
1669906980
0C9A1A9764
0665E5A996
018A554758
0065BAE8A0
000A541B40
00006FE400
0000A94000
0002864000
00033A4000
0003600000
00033A4000
0002450000
0000BE4000
ENDCHAR
STARTCHAR Egrave
ENCODING 200
SWIDTH 706 0
DWIDTH 17 0
BBX 15 27 1 0
BITMAP
14000000
4A400000
74A40000
074B4000
00789000
00060000
00000000
45155554
DA755554
DA7AAAA8
DA700000
DA7AAAA8
DA700000
DA700000
DA700000
DA7AA400
DA700000
DA7AA400
DA755400
DA755400
DA700000
DA700000
DA755554
DA7AAAA8
DA7AAAA8
DA755554
DA7FFFF8
ENDCHAR
STARTCHAR Eacute
ENCODING 201
SWIDTH 706 0
DWIDTH 17 0
BBX 15 27 1 0
BITMAP
00000050
00000694
00006978
00068740
00087400
00024000
00000000
45155554
DA755554
DA7AAAA8
DA700000
DA7AAAA8
DA700000
DA700000
DA700000
DA7AA400
DA700000
DA7AA400
DA755400
DA755400
DA700000
DA700000
DA755554
DA7AAAA8
DA7AAAA8
DA755554
DA7FFFF8
ENDCHAR
STARTCHAR Ecircumflex
ENCODING 202
SWIDTH 706 0
DWIDTH 17 0
BBX 15 27 1 0
BITMAP
00098000
001A5000
00272000
00266400
00999800
00889800
00000000
45155554
DA755554
DA7AAAA8
DA700000
DA7AAAA8
DA700000
DA700000
DA700000
DA7AA400
DA700000
DA7AA400
DA755400
DA755400
DA700000
DA700000
DA755554
DA7AAAA8
DA7AAAA8
DA755554
DA7FFFF8
ENDCHAR
STARTCHAR Edieresis
ENCODING 203
SWIDTH 706 0
DWIDTH 17 0
BBX 15 25 1 0
BITMAP
05101140
1A603690
1A603690
04101040
00000000
45155554
DA755554
DA7AAAA8
DA700000
DA7AAAA8
DA700000
DA700000
DA700000
DA7AA400
DA700000
DA7AA400
DA755400
DA755400
DA700000
DA700000
DA755554
DA7AAAA8
DA7AAAA8
DA755554
DA7FFFF8
ENDCHAR
STARTCHAR Igrave
ENCODING 204
SWIDTH 338 0
DWIDTH 8 0
BBX 11 27 -4 0
BITMAP
080000
568000
696800
069690
006950
000640
000000
001144
00369C
00369C
00369C
00369C
00369C
00369C
00369C
00369C
00369C
00369C
00369C
00369C
00369C
00369C
00369C
00369C
00369C
00369C
00369C
ENDCHAR
STARTCHAR Iacute
ENCODING 205
SWIDTH 338 0
DWIDTH 8 0
BBX 11 27 1 0
BITMAP
000090
000A54
00A5A4
0A5A40
15A400
064000
000000
451000
DA7000
DA7000
DA7000
DA7000
DA7000
DA7000
DA7000
DA7000
DA7000
DA7000
DA7000
DA7000
DA7000
DA7000
DA7000
DA7000
DA7000
DA7000
DA7000
ENDCHAR
STARTCHAR Icircumflex
ENCODING 206
SWIDTH 338 0
DWIDTH 8 0
BBX 8 27 0 0
BITMAP
0650
0A30
19A4
25D8
2698
5965
0000
1144
369C
369C
369C
369C
369C
369C
369C
369C
369C
369C
369C
369C
369C
369C
369C
369C
369C
369C
369C
ENDCHAR
STARTCHAR Idieresis
ENCODING 207
SWIDTH 338 0
DWIDTH 8 0
BBX 12 25 -2 0
BITMAP
444011
8D8162
8D8162
440011
000000
011440
0369C0
0369C0
0369C0
0369C0
0369C0
0369C0
0369C0
0369C0
0369C0
0369C0
0369C0
0369C0
0369C0
0369C0
0369C0
0369C0
0369C0
0369C0
0369C0
ENDCHAR
STARTCHAR Eth
ENCODING 208
SWIDTH 905 0
DWIDTH 22 0
BBX 21 20 0 0
BITMAP
155555500000
1955556E4000
16AAAAA59000
1640005A2400
163AAAA58800
1621554A6600
1626AAA66640
1625000CD980
6AAA90059C80
0000000658C0
6AAA900659C0
155550069880
166550098D80
162500199A40
1627FFE76700
1625555D9600
162AAA929800
16AAAAAD7000
155555568000
1FFFFFF90000
ENDCHAR
STARTCHAR Ntilde
ENCODING 209
SWIDTH 877 0
DWIDTH 21 0
BBX 19 26 1 0
BITMAP
006AAA4840
0250001980
067AAAA240
0981555A00
0446AA9400
0000000000
4444001144
E66600369C
E66640369C
C99980369C
C99990369C
D66370369C
D99998369C
D99999369C
DA7276369C
DA5999669C
DA5999969C
DA6666669C
DA7266659C
DA70CCDC9C
DA7066669C
DA7026665C
DA7009998C
DA7009999C
DA7002237C
DA7001999C
ENDCHAR
STARTCHAR Ograve
ENCODING 210
SWIDTH 933 0
DWIDTH 22 0
BBX 22 28 0 -1
BITMAP
002400000000
005A40000000
00A5A4000000
000A5A400000
0000A5800000
000009000000
000005000000
0002AAB90000
00295A568000
0096956D6400
02596A928900
0962955D6300
099D6AA65980
2666801D99C0
366600066690
259C00026360
69D80001A760
69D80001A620
69880001A760
269800027650
276600066590
166990698D80
0C9A1A976640
0665E5A89600
018A55475800
0065BAA9A000
000A555B4000
00006AA40000
ENDCHAR
STARTCHAR Oacute
ENCODING 211
SWIDTH 933 0
DWIDTH 22 0
BBX 22 28 0 -1
BITMAP
000000005000
000000074400
000000B5A400
00000B5A4000
000015A40000
000002400000
000005000000
0002AAB90000
00295A568000
0096956D6400
02596A928900
0962955D6300
099D6AA65980
2666801D99C0
366600066690
259C00026360
69D80001A760
69D80001A620
69880001A760
269800027650
276600066590
166990698D80
0C9A1A976640
0665E5A89600
018A55475800
0065BAA9A000
000A555B4000
00006AA40000
ENDCHAR
STARTCHAR Ocircumflex
ENCODING 212
SWIDTH 933 0
DWIDTH 22 0
BBX 22 28 0 -1
BITMAP
000018800000
000029800000
000026500000
000056200000
000089640000
000194980000
000005000000
0002AAB90000
00295A568000
0096956D6400
02596A928900
0962955D6300
099D6AA65980
2666801D99C0
366600066690
259C00026360
69D80001A760
69D80001A620
69880001A760
269800027650
276600066590
166990698D80
0C9A1A976640
0665E5A89600
018A55475800
0065BAA9A000
000A555B4000
00006AA40000
ENDCHAR
STARTCHAR Otilde
ENCODING 213
SWIDTH 933 0
DWIDTH 22 0
BBX 22 27 0 -1
BITMAP
000AAAA05400
007400026400
009BAAAA3000
00C855559000
00446AA50000
000005000000
0002AAB90000
00295A568000
0096956D6400
02596A928900
0962955D6300
099D6AA65980
2666801D99C0
366600066690
259C00026360
69D80001A760
69D80001A620
69880001A760
269800027650
276600066590
166990698D80
0C9A1A976640
0665E5A89600
018A55475800
0065BAA9A000
000A555B4000
00006AA40000
ENDCHAR
STARTCHAR Odieresis
ENCODING 214
SWIDTH 933 0
DWIDTH 22 0
BBX 22 26 0 -1
BITMAP
001110144000
00262069C000
00262069C000
000110044000
000005000000
0002AAB90000
00295A568000
0096956D6400
02596A928900
0962955D6300
099D6AA65980
2666801D99C0
366600066690
259C00026360
69D80001A760
69D80001A620
69880001A760
269800027650
276600066590
166990698D80
0C9A1A976640
0665E5A89600
018A55475800
0065BAA9A000
000A555B4000
00006AA40000
ENDCHAR
STARTCHAR multiply
ENCODING 215
SWIDTH 790 0
DWIDTH 19 0
BBX 19 17 0 0
BITMAP
6222022224
2669899660
0CC9999CC0
0666326640
0265966600
00CD9CCC00
0062666400
0026666000
000CCC9000
002666A000
0066672400
00CC99CC00
0266996600
0666336640
0C999999C0
2699899960
6733033364
ENDCHAR
STARTCHAR Oslash
ENCODING 216
SWIDTH 938 0
DWIDTH 23 0
BBX 22 27 0 -4
BITMAP
000000010000
000000026000
000005059800
0002AAB95800
00295A569000
0096956D6400
02596A928900
0966955D6200
099D6AA65980
2666801D99C0
366600066690
659C00026260
69D80001A760
69D80001A620
69880001A760
269800027650
266600066990
166990698D80
0C9A1A966640
0665E5A89600
018A55475800
0065BAA9A000
009A545A4000
01656AA40000
032600000000
009900000000
000800000000
ENDCHAR
STARTCHAR Ugrave
ENCODING 217
SWIDTH 905 0
DWIDTH 22 0
BBX 20 28 1 -1
BITMAP
0140000000
0474000000
0697800000
0069780000
0006950000
0000600000
0000000000
4510000511
9A70001A76
9A70001A76
9A70001A76
9A70001A76
9A70001A76
9A70001A76
9A70001A76
9A70001A76
9A70001A76
9A70001A76
9A70001A76
DA60001676
8998003665
599A41D998
3365A92998
199B96D620
0A74556990
0296EB9640
0079016800
0006AA4000
ENDCHAR
STARTCHAR Uacute
ENCODING 218
SWIDTH 905 0
DWIDTH 22 0
BBX 20 28 1 -1
BITMAP
0000000600
0000006940
0000069680
0000696800
0000968000
0000180000
0000000000
4510000511
9A70001A76
9A70001A76
9A70001A76
9A70001A76
9A70001A76
9A70001A76
9A70001A76
9A70001A76
9A70001A76
9A70001A76
9A70001A76
DA60001676
8998003665
599A41D998
3365A92998
199B96D620
0A74556990
0296EB9640
0079016800
0006AA4000
ENDCHAR
STARTCHAR Ucircumflex
ENCODING 219
SWIDTH 905 0
DWIDTH 22 0
BBX 20 28 1 -1
BITMAP
0000950000
0000B60000
0001660000
0002194000
0006588000
0009859000
0000000000
4510000511
9A70001A76
9A70001A76
9A70001A76
9A70001A76
9A70001A76
9A70001A76
9A70001A76
9A70001A76
9A70001A76
9A70001A76
9A70001A76
DA60001676
8998003665
599A41D998
3365A92998
199B96D620
0A74556990
0296EB9640
0079016800
0006AA4000
ENDCHAR
STARTCHAR Udieresis
ENCODING 220
SWIDTH 905 0
DWIDTH 22 0
BBX 20 26 1 -1
BITMAP
0045011100
00DA422600
00DA422600
0044011000
0000000000
4510000511
9A70001A76
9A70001A76
9A70001A76
9A70001A76
9A70001A76
9A70001A76
9A70001A76
9A70001A76
9A70001A76
9A70001A76
9A70001A76
DA60001676
8998003665
599A41D998
3365A92998
199B96D620
0A74556990
0296EB9640
0079016800
0006AA4000
ENDCHAR
STARTCHAR Yacute
ENCODING 221
SWIDTH 789 0
DWIDTH 19 0
BBX 19 27 0 0
BITMAP
0000000500
0000006940
0000068740
0000687400
00018B4000
0000240000
0000000000
4450004444
6598009960
266901A660
1A66026580
099A469980
0699899A40
0265996600
01A6266900
0099659800
005999A400
0026966000
0016665000
000A598000
0009994000
0005894000
0005894000
0005894000
0005894000
0005894000
0005894000
ENDCHAR
STARTCHAR Thorn
ENCODING 222
SWIDTH 798 0
DWIDTH 19 0
BBX 18 23 1 -2
BITMAP
4010000000
DA60000000
DA60000000
DA6AAE4000
DA6555A000
DA656A5C00
DA6AA4A600
DA64176640
DA6FB89C80
DA60066580
DA60023690
DA60027690
DA60032690
DA65599980
DA66919980
DA66AE7640
DA61569900
DA6BE96400
DA65569000
DA66A50000
DA60000000
DA60000000
8560000000
ENDCHAR
STARTCHAR germandbls
ENCODING 223
SWIDTH 826 0
DWIDTH 20 0
BBX 18 23 1 -2
BITMAP
0005540000
01AAAAE000
0A56A95D00
29E555A640
666BFE5980
9991559590
899AAB7250
DA7001A760
DA76AA6250
DA7555A590
DA7AAF8C80
DA71556650
DA76AA9660
DA7000D960
DA7000DA70
DA7BFE6630
DA7155A660
DA76AA59C0
DA76AAE640
DA75552D00
DA7BFF9000
DA70000000
9520000000
ENDCHAR
STARTCHAR agrave
ENCODING 224
SWIDTH 832 0
DWIDTH 20 0
BBX 19 26 0 -1
BITMAP
0140000000
04B4000000
0787400000
0068740000
0006850000
0000600000
0000000000
0000550000
001A9AE000
00A1A95A00
035E55A680
09A6BA5990
199914A720
2322AB5994
26990099D8
69C8006588
69D800369C
69D800369C
259800369C
366655769C
195969369C
0996AA769C
036955769C
00A1AA369C
001A56769C
0001550000
ENDCHAR
STARTCHAR aacute
ENCODING 225
SWIDTH 832 0
DWIDTH 20 0
BBX 19 26 0 -1
BITMAP
0000000600
0000006940
0000069680
0000696800
0000978000
0000280000
0000000000
0000550000
001A9AE000
00A1A95A00
035E55A680
09A6BA5990
199914A720
2322AB5994
26990099D8
69C8006588
69D800369C
69D800369C
259800369C
366655769C
195969369C
0996AA769C
036955769C
00A1AA369C
001A56769C
0001550000
ENDCHAR
STARTCHAR acircumflex
ENCODING 226
SWIDTH 832 0
DWIDTH 20 0
BBX 19 26 0 -1
BITMAP
0000990000
0001A60000
0002670000
00031A4000
00069D8000
0008898000
0000000000
0000550000
001A9AE000
00A1A95A00
035E55A680
09A6BA5990
199914A720
2322AB5994
26990099D8
69C8006588
69D800369C
69D800369C
259800369C
366655769C
195969369C
0996AA769C
036955769C
00A1AA369C
001A56769C
0001550000
ENDCHAR
STARTCHAR atilde
ENCODING 227
SWIDTH 832 0
DWIDTH 20 0
BBX 19 24 0 -1
BITMAP
006AAA4880
0290000C80
062AAAA580
0591555A00
0542AA9400
0000550000
001A9AE000
00A1A95A00
035E55A680
09A6BA5990
199914A720
2322AB5994
26990099D8
69C8006588
69D800369C
69D800369C
259800369C
366655769C
195969369C
0996AA769C
036955769C
00A1AA369C
001A56769C
0001550000
ENDCHAR
STARTCHAR adieresis
ENCODING 228
SWIDTH 832 0
DWIDTH 20 0
BBX 19 23 0 -1
BITMAP
0045011000
009A422500
009A422500
0041011000
0000550000
001A9AE000
00A1A95A00
035E55A680
09A6BA5990
199914A720
2322AB5994
26990099D8
69C8006588
69D800369C
69D800369C
259800369C
366655769C
195969369C
0996AA769C
036955769C
00A1AA369C
001A56769C
0001550000
ENDCHAR
STARTCHAR aring
ENCODING 229
SWIDTH 832 0
DWIDTH 20 0
BBX 19 26 0 -1
BITMAP
0000A90000
0002564000
0006958000
0005828000
0002A98000
0001960000
0000140000
0000550000
001A9AE000
00A1A95A00
035E55A680
09A6BA5990
199914A720
2322AB5994
26990099D8
69C8006588
69D800369C
69D800369C
259800369C
366655769C
195969369C
0996AA769C
036955769C
00A1AA369C
001A56769C
0001550000
ENDCHAR
STARTCHAR ae
ENCODING 230
SWIDTH 1166 0
DWIDTH 28 0
BBX 27 19 0 -1
BITMAP
00005500000000
001A9AE15BFFFC
00A1A95A9D5554
035E55A68EAAA8
09A6BA599EAAA8
199914A73D5554
2322AB599C0000
26990099DEAAA4
69C800658D5550
69D800369FFFF4
69D800369D5550
259800369EAAA4
366655769C0000
195969369D5554
0996AA769EAAA8
036955769EAAA8
00A1AA369D5554
001A56769FFFFC
00015500000000
ENDCHAR
STARTCHAR ccedilla
ENCODING 231
SWIDTH 736 0
DWIDTH 18 0
BBX 17 26 0 -8
BITMAP
0001AA4000
002E55B400
0096FE9A00
0369146580
09A6AA9A00
1999696400
2362968000
2699004000
6998000000
69D8000000
6998000000
2599000000
2267428000
1A58A96400
0996969A00
0669556980
01D6EB9600
0029416800
0001FE4000
0002990000
0009190000
0009A80000
001A400000
0019A80000
0009140000
0002F90000
ENDCHAR
STARTCHAR egrave
ENCODING 232
SWIDTH 666 0
DWIDTH 16 0
BBX 15 25 0 0
BITMAP
08000000
56800000
69680000
06969000
00695000
00064000
00000000
00000000
265BFFFC
369D5554
369EAAA8
369EAAA8
369D5554
369C0000
369EAAA4
369D5554
369FFFF8
369D5550
369EAAA4
369C0000
369D5554
369EAAA8
369EAAA8
369D5554
369FFFFC
ENDCHAR
STARTCHAR eacute
ENCODING 233
SWIDTH 666 0
DWIDTH 16 0
BBX 15 25 1 0
BITMAP
00000090
00000B54
0000A5A4
000A5A40
0015A400
00064000
00000000
00000000
996FFFF0
DA755550
DA7AAAA0
DA7AAAA0
DA755550
DA700000
DA7AAA90
DA755550
DA7FFFE0
DA755540
DA7AAA90
DA700000
DA755550
DA7AAAA0
DA7AAAA0
DA755550
DA7FFFF0
ENDCHAR
STARTCHAR ecircumflex
ENCODING 234
SWIDTH 666 0
DWIDTH 16 0
BBX 14 25 1 0
BITMAP
00194000
0029C000
00669000
00976000
00DA6000
01659400
00000000
00000000
996FFFF0
DA755550
DA7AAAA0
DA7AAAA0
DA755550
DA700000
DA7AAA90
DA755550
DA7FFFE0
DA755540
DA7AAA90
DA700000
DA755550
DA7AAAA0
DA7AAAA0
DA755550
DA7FFFF0
ENDCHAR
STARTCHAR edieresis
ENCODING 235
SWIDTH 666 0
DWIDTH 16 0
BBX 14 22 1 0
BITMAP
11100440
27605880
27605880
11000440
00000000
996FFFF0
DA755550
DA7AAAA0
DA7AAAA0
DA755550
DA700000
DA7AAA90
DA755550
DA7FFFE0
DA755540
DA7AAA90
DA700000
DA755550
DA7AAAA0
DA7AAAA0
DA755550
DA7FFFF0
ENDCHAR
STARTCHAR igrave
ENCODING 236
SWIDTH 337 0
DWIDTH 8 0
BBX 11 25 -4 0
BITMAP
080000
568000
696800
069690
006950
000640
000000
000000
002658
00369C
00369C
00369C
00369C
00369C
00369C
00369C
00369C
00369C
00369C
00369C
00369C
00369C
00369C
00369C
00369C
ENDCHAR
STARTCHAR iacute
ENCODING 237
SWIDTH 337 0
DWIDTH 8 0
BBX 11 25 1 0
BITMAP
000090
000A54
00A5A4
0A5A40
15A400
064000
000000
000000
996000
DA7000
DA7000
DA7000
DA7000
DA7000
DA7000
DA7000
DA7000
DA7000
DA7000
DA7000
DA7000
DA7000
DA7000
DA7000
DA7000
ENDCHAR
STARTCHAR icircumflex
ENCODING 238
SWIDTH 337 0
DWIDTH 8 0
BBX 8 25 0 0
BITMAP
0650
0A30
19A4
25D8
2698
5965
0000
0000
2658
369C
369C
369C
369C
369C
369C
369C
369C
369C
369C
369C
369C
369C
369C
369C
369C
ENDCHAR
STARTCHAR idieresis
ENCODING 239
SWIDTH 337 0
DWIDTH 8 0
BBX 12 22 -2 0
BITMAP
444011
8D8162
8D8162
440011
000000
026580
0369C0
0369C0
0369C0
0369C0
0369C0
0369C0
0369C0
0369C0
0369C0
0369C0
0369C0
0369C0
0369C0
0369C0
0369C0
0369C0
ENDCHAR
STARTCHAR eth
ENCODING 240
SWIDTH 783 0
DWIDTH 19 0
BBX 18 22 0 -1
BITMAP
0000500000
006EAB9000
0695A56800
09B9569600
025AE92580
006401D980
000AAE6650
0000026720
0000009620
006AA99670
0756949670
0DA5559670
265AA99670
2665549670
69DA599620
59D9066760
6596A96650
336A5A9880
19D1546640
0A2AAE5900
01A401A400
001AAA4000
ENDCHAR
STARTCHAR ntilde
ENCODING 241
SWIDTH 787 0
DWIDTH 19 0
BBX 17 23 1 0
BITMAP
01AAA92500
0940006500
15EAAA8900
2715556800
111AAA5000
0000000000
9999005880
E666005880
E666405880
CCCCC05880
DA66605880
DA66605880
D999985880
D999995880
DA73365880
DA5A669880
DA4CCCC880
DA46666880
DA42666480
DA41999880
DA40999980
DA40333780
DA40199A80
ENDCHAR
STARTCHAR ograve
ENCODING 242
SWIDTH 833 0
DWIDTH 20 0
BBX 20 26 0 -1
BITMAP
0180000000
0568000000
0696800000
0069680000
0006950000
0000640000
0000000000
0001AA4000
002E55B400
0096FE8A00
0369146580
09A6AA8A60
1999696664
2362969998
269900659C
6998003658
69D8002259
6998003258
259900659C
2267469898
1A58A96664
0996969A60
0669556980
01D6EB9600
0029416800
0001AA4000
ENDCHAR
STARTCHAR oacute
ENCODING 243
SWIDTH 833 0
DWIDTH 20 0
BBX 20 26 0 -1
BITMAP
0000000200
0000002950
0000029690
0000696900
0000569000
0000180000
0000000000
0001AA4000
002E55B400
0096FE8A00
0369146580
09A6AA8A60
1999696664
2362969998
269900659C
6998003658
69D8002259
6998003258
259900659C
2267469898
1A58A96664
0996969A60
0669556980
01D6EB9600
0029416800
0001AA4000
ENDCHAR
STARTCHAR ocircumflex
ENCODING 244
SWIDTH 833 0
DWIDTH 20 0
BBX 20 26 0 -1
BITMAP
0000650000
0000F20000
0001A64000
0002598000
000269C000
0005965000
0000000000
0001AA4000
002E55B400
0096FE8A00
0369146580
09A6AA8A60
1999696664
2362969998
269900659C
6998003658
69D8002259
6998003258
259900659C
2267469898
1A58A96664
0996969A60
0669556980
01D6EB9600
0029416800
0001AA4000
ENDCHAR
STARTCHAR otilde
ENCODING 245
SWIDTH 833 0
DWIDTH 20 0
BBX 20 24 0 -1
BITMAP
006AAA8580
01900009C0
032EAAA580
0261555740
0142AA9400
0001AA4000
002E55B400
0096FE8A00
0369146580
09A6AA8A60
1999696664
2362969998
269900659C
6998003658
69D8002259
6998003258
259900659C
2267469898
1A58A96664
0996969A60
0669556980
01D6EB9600
0029416800
0001AA4000
ENDCHAR
STARTCHAR odieresis
ENCODING 246
SWIDTH 833 0
DWIDTH 20 0
BBX 20 23 0 -1
BITMAP
0044011100
0089427600
0089427600
0044001100
0001AA4000
002E55B400
0096FE8A00
0369146580
09A6AA8A60
1999696664
2362969998
269900659C
6998003658
69D8002259
6998003258
259900659C
2267469898
1A58A96664
0996969A60
0669556980
01D6EB9600
0029416800
0001AA4000
ENDCHAR
STARTCHAR divide
ENCODING 247
SWIDTH 260 0
DWIDTH 6 0
BBX 8 14 -1 1
BITMAP
09A4
0DA4
0DA4
0DA4
0450
5555
6AA9
6AAA
1555
0450
0DA4
0DA4
0DA4
09A4
ENDCHAR
STARTCHAR oslash
ENCODING 248
SWIDTH 832 0
DWIDTH 20 0
BBX 20 21 0 -2
BITMAP
0000002500
0001AA5650
002E55B9C0
0196FE8A40
0369546580
0996AA9A60
1999697664
2362969D98
269900A59C
69D8003658
69D8002259
69D8003258
259900659C
2267468DD8
1658A96664
0997969A60
0629556980
0196EB9600
0269416800
0595AA4000
0058000000
ENDCHAR
STARTCHAR ugrave
ENCODING 249
SWIDTH 795 0
DWIDTH 19 0
BBX 17 26 1 -1
BITMAP
0500000000
1690000000
2D29000000
01D2900000
001E200000
0001800000
0000000000
0000000000
9620022580
9A70022580
9A70022580
9A70022580
9A70022580
9A70022580
9A70022580
9A70022580
9A70022580
9A70032580
9A60026980
8D99199880
59A2A69940
266A5A6200
19A5559900
065AA96400
01A4069000
001AA90000
ENDCHAR
STARTCHAR uacute
ENCODING 250
SWIDTH 795 0
DWIDTH 19 0
BBX 17 26 1 -1
BITMAP
0000001400
000001A500
00001A5E00
0001A1D000
00021D0000
0000900000
0000000000
0000000000
9620022580
9A70022580
9A70022580
9A70022580
9A70022580
9A70022580
9A70022580
9A70022580
9A70022580
9A70032580
9A60026980
8D99199880
59A2A69940
266A5A6200
19A5559900
065AA96400
01A4069000
001AA90000
ENDCHAR
STARTCHAR ucircumflex
ENCODING 251
SWIDTH 795 0
DWIDTH 19 0
BBX 17 26 1 -1
BITMAP
0002600000
0006940000
0008C80000
0009990000
0026660000
0022220000
0000000000
0000000000
9620022580
9A70022580
9A70022580
9A70022580
9A70022580
9A70022580
9A70022580
9A70022580
9A70022580
9A70032580
9A60026980
8D99199880
59A2A69940
266A5A6200
19A5559900
065AA96400
01A4069000
001AA90000
ENDCHAR
STARTCHAR udieresis
ENCODING 252
SWIDTH 795 0
DWIDTH 19 0
BBX 17 23 1 -1
BITMAP
0144045000
06980DA400
06980DA400
0104041000
0000000000
9620022580
9A70022580
9A70022580
9A70022580
9A70022580
9A70022580
9A70022580
9A70022580
9A70022580
9A70032580
9A60026980
8D99199880
59A2A69940
266A5A6200
19A5559900
065AA96400
01A4069000
001AA90000
ENDCHAR
STARTCHAR yacute
ENCODING 253
SWIDTH 733 0
DWIDTH 18 0
BBX 17 25 0 0
BITMAP
0000001800
000001A500
00001A5A00
0001A5A000
00025A0000
0000600000
0000000000
0000000000
5994026580
2698069980
1666099600
09965A6600
0599A65900
0266699800
016699A400
0089966000
0056669000
0022598000
001D9A4000
000DA70000
000DA70000
000DA70000
000DA70000
000DA70000
000DA70000
ENDCHAR
STARTCHAR thorn
ENCODING 254
SWIDTH 833 0
DWIDTH 20 0
BBX 19 23 1 -3
BITMAP
4510000000
DA60000000
DA60000000
DA60000000
DA60000000
DA61554000
DA66AAB800
DA66AA9740
DA615569C0
DA67FF9660
DA61556670
DA66AAD960
DA6000C964
DA66AA5A60
DA6155A760
DA65555D90
DA66AAA680
DA60005900
DA66AA9000
DA60000000
DA60000000
DA60000000
4550000000
ENDCHAR
STARTCHAR ydieresis
ENCODING 255
SWIDTH 733 0
DWIDTH 18 0
BBX 17 22 0 0
BITMAP
0114044400
0369089800
0369089800
0110044000
0000000000
5994026580
2698069980
1666099600
09965A6600
0599A65900
0266699800
016699A400
0089966000
0056669000
0022598000
001D9A4000
000DA70000
000DA70000
000DA70000
000DA70000
000DA70000
000DA70000
ENDCHAR
STARTCHAR Amacron
ENCODING 256
SWIDTH 936 0
DWIDTH 22 0
BBX 22 20 0 0
BITMAP
000044440000
0001D8C80000
000266990000
000227660000
00059A630000
000C8D9A4000
0019598D8000
002636698000
002656366000
005989663000
008994D9A400
01966098D800
026360659800
02659A636600
0598C5566300
08D9AFE99640
196655598D80
26366AA65980
366900022650
599C00016630
ENDCHAR
STARTCHAR amacron
ENCODING 257
SWIDTH 832 0
DWIDTH 20 0
BBX 19 19 0 -1
BITMAP
0000550000
001A9AE000
00A1A95A00
035E55A680
09A6BA5990
199914A720
2322AB5994
26990099D8
69C8006588
69D800369C
69D800369C
259800369C
366655769C
195969369C
0996AA769C
036955769C
00A1AA369C
001A56769C
0001550000
ENDCHAR
STARTCHAR Abreve
ENCODING 258
SWIDTH 936 0
DWIDTH 22 0
BBX 22 25 0 0
BITMAP
000160580000
00009A940000
000069900000
000000000000
000000000000
000044440000
0001D8C80000
000266990000
000227660000
00059A630000
000C8D9A4000
0019598D8000
002636698000
002656366000
005989663000
008994D9A400
01966098D800
026360659800
02659A636600
0598C5566300
08D9AFE99640
196655598D80
26366AA65980
366900022650
599C00016630
ENDCHAR
STARTCHAR abreve
ENCODING 259
SWIDTH 832 0
DWIDTH 20 0
BBX 19 23 0 -1
BITMAP
0009424000
0009A98000
00029A0000
0000000000
0000550000
001A9AE000
00A1A95A00
035E55A680
09A6BA5990
199914A720
2322AB5994
26990099D8
69C8006588
69D800369C
69D800369C
259800369C
366655769C
195969369C
0996AA769C
036955769C
00A1AA369C
001A56769C
0001550000
ENDCHAR
STARTCHAR Aogonek
ENCODING 260
SWIDTH 937 0
DWIDTH 23 0
BBX 22 28 0 -8
BITMAP
000044440000
0000E98C0000
000276690000
000326360000
000659660000
0009C8D98000
00099598C000
001673669000
003266636000
006599966000
009C98899800
009964598C00
016630265900
02266AA63600
065995596600
098DAFEC9940
0996555998C0
16636AA66590
236500027260
659800019660
000069000000
000190000000
000229000000
000320000000
000365000000
000369000000
000369000000
000255000000
ENDCHAR
STARTCHAR aogonek
ENCODING 261
SWIDTH 832 0
DWIDTH 20 0
BBX 19 26 0 -8
BITMAP
0000550000
001A9AE000
00A1A95A00
035E55A680
09A6BA5990
199914A720
2322AB5994
26990099D8
69C8006588
69D800369C
69D800369C
259800369C
366655769C
195969369C
0996AA769C
036955769C
00A1AA369C
001A56769C
0002F50000
0009000000
0019E00000
0016400000
0016100000
0016200000
0016200000
0016200000
ENDCHAR
STARTCHAR Cacute
ENCODING 262
SWIDTH 852 0
DWIDTH 20 0
BBX 20 28 0 -1
BITMAP
0000000050
0000000744
000000B5A4
00000B5A40
000015A400
0000024000
0000050000
0002AAB900
00295A5680
0096956D64
02596A9289
0962941D66
099D6AE254
2666801980
3666000500
259C000000
69D8000000
69D8000000
6988000000
2698000000
2766000500
1669906980
0C9A1A9764
0665E5A996
018A554758
0065BAE8A0
000A541B40
00006AA400
ENDCHAR
STARTCHAR cacute
ENCODING 263
SWIDTH 736 0
DWIDTH 18 0
BBX 18 26 0 -1
BITMAP
0000000200
0000002950
0000029690
0000696900
0000569000
0000180000
0000000000
0001AA4000
002E55B400
0096FE9A00
0369146580
09A6AA9A00
1999696400
2362968000
2699004000
6998000000
69D8000000
6998000000
2599000000
2267428000
1A58A96400
0996969A00
0669556980
01D6EB9600
0029416800
0001AA4000
ENDCHAR
STARTCHAR Cdotaccent
ENCODING 266
SWIDTH 852 0
DWIDTH 20 0
BBX 20 27 0 -1
BITMAP
0000154000
0000154000
00002A9000
0000000000
00002A9000
0000050000
0002AAB900
00295A5680
0096956D64
02596A9289
0962941D66
099D6AE254
2666801980
3666000500
259C000000
69D8000000
69D8000000
6988000000
2698000000
2766000500
1669906980
0C9A1A9764
0665E5A996
018A554758
0065BAE8A0
000A541B40
00006AA400
ENDCHAR
STARTCHAR cdotaccent
ENCODING 267
SWIDTH 736 0
DWIDTH 18 0
BBX 17 25 0 -1
BITMAP
0000550000
0000550000
0000AA0000
0000000000
0000AA0000
0000000000
0001AA4000
002E55B400
0096FE9A00
0369146580
09A6AA9A00
1999696400
2362968000
2699004000
6998000000
69D8000000
6998000000
2599000000
2267428000
1A58A96400
0996969A00
0669556980
01D6EB9600
0029416800
0001AA4000
ENDCHAR
STARTCHAR Ccaron
ENCODING 268
SWIDTH 852 0
DWIDTH 20 0
BBX 20 28 0 -1
BITMAP
0001549800
0000C9A400
0000967000
0000266000
0000298000
00001C8000
0000050000
0002AAB900
00295A5680
0096956D64
02596A9289
0962941D66
099D6AE254
2666801980
3666000500
259C000000
69D8000000
69D8000000
6988000000
2698000000
2766000500
1669906980
0C9A1A9764
0665E5A996
018A554758
0065BAE8A0
000A541B40
00006AA400
ENDCHAR
STARTCHAR ccaron
ENCODING 269
SWIDTH 736 0
DWIDTH 18 0
BBX 17 26 0 -1
BITMAP
0005855000
0006598000
0002198000
0001564000
0000E20000
0000A50000
0000000000
0001AA4000
002E55B400
0096FE9A00
0369146580
09A6AA9A00
1999696400
2362968000
2699004000
6998000000
69D8000000
6998000000
2599000000
2267428000
1A58A96400
0996969A00
0669556980
01D6EB9600
0029416800
0001AA4000
ENDCHAR
STARTCHAR Dcaron
ENCODING 270
SWIDTH 886 0
DWIDTH 21 0
BBX 20 27 1 0
BITMAP
0009855000
000699C000
0003198000
0002660000
0000B60000
0000A90000
0000000000
5555554000
D55556B400
CAAAAA5A00
D800017580
DAEAAB9A60
DA55556664
DA7AAA9CD8
DA70006598
DA70003269
DA70002765
DA70002725
DA70002765
DA70003659
DA7000998C
DA6FFE5998
DA5555A720
D9AAAA5D90
DAAAAAA680
C555551D00
FFFFFF9000
ENDCHAR
STARTCHAR dcaron
ENCODING 271
SWIDTH 1084 0
DWIDTH 26 0
BBX 25 18 1 0
BITMAP
00000000004000
BFFFFA40009A40
C5555174009A40
DEAAAB8A009A40
D9AA9576401A40
DA95569D806600
DA6AA966609600
DA60066630A900
DA60009A605000
DA6000C9640000
DA60009A600000
DA600266700000
DA6FF966600000
DA555689900000
D9AAA966800000
DAAAAA9A000000
C5555468000000
FFFFFA80000000
ENDCHAR
STARTCHAR Dcroat
ENCODING 272
SWIDTH 888 0
DWIDTH 21 0
BBX 22 20 -1 0
BITMAP
055555540000
0D55556B4000
0CAAAAA5A000
0D8000175800
0DAEAAB9A600
0DA555566640
0DA6AAA88C80
0DA600065980
EDA67D032690
4DA614027650
9DA669026250
9DA668023650
5DA654026590
0DA6000998C0
0DA6FFE59980
0DA5555A7200
0D9AAAA59900
0DAAAAAA6800
0C555551D000
0FFFFFF90000
ENDCHAR
STARTCHAR dcroat
ENCODING 273
SWIDTH 833 0
DWIDTH 20 0
BBX 21 17 -1 0
BITMAP
0BFFFFA40000
0C5555174000
0DEAAAB8A000
0D9AA9576400
0DA95569D800
0DA6AA966600
0DA700666300
9DA76909A600
0DA7000C9640
9DA76909A600
0DA700266300
0DA6FF966600
0DA555689900
0D9AAA966800
0DAAAAA9A000
0C5555468000
0FFFFFA80000
ENDCHAR
STARTCHAR Emacron
ENCODING 274
SWIDTH 706 0
DWIDTH 17 0
BBX 15 20 1 0
BITMAP
45155554
DA755554
DA7AAAA8
DA700000
DA7AAAA8
DA700000
DA700000
DA700000
DA7AA400
DA700000
DA7AA400
DA755400
DA755400
DA700000
DA700000
DA755554
DA7AAAA8
DA7AAAA8
DA755554
DA7FFFF8
ENDCHAR
STARTCHAR emacron
ENCODING 275
SWIDTH 666 0
DWIDTH 16 0
BBX 14 17 1 0
BITMAP
996FFFF0
DA755550
DA7AAAA0
DA7AAAA0
DA755550
DA700000
DA7AAA90
DA755550
DA7FFFE0
DA755540
DA7AAA90
DA700000
DA755550
DA7AAAA0
DA7AAAA0
DA755550
DA7FFFF0
ENDCHAR
STARTCHAR Ebreve
ENCODING 276
SWIDTH 706 0
DWIDTH 17 0
BBX 15 25 1 0
BITMAP
00901400
009A9800
0029A000
00000000
00000000
45155554
DA755554
DA7AAAA8
DA700000
DA7AAAA8
DA700000
DA700000
DA700000
DA7AA400
DA700000
DA7AA400
DA755400
DA755400
DA700000
DA700000
DA755554
DA7AAAA8
DA7AAAA8
DA755554
DA7FFFF8
ENDCHAR
STARTCHAR ebreve
ENCODING 277
SWIDTH 666 0
DWIDTH 16 0
BBX 14 22 1 0
BITMAP
01505400
009A6400
006A9000
00000000
00000000
996FFFF0
DA755550
DA7AAAA0
DA7AAAA0
DA755550
DA700000
DA7AAA90
DA755550
DA7FFFE0
DA755540
DA7AAA90
DA700000
DA755550
DA7AAAA0
DA7AAAA0
DA755550
DA7FFFF0
ENDCHAR
STARTCHAR Edotaccent
ENCODING 278
SWIDTH 706 0
DWIDTH 17 0
BBX 15 26 1 0
BITMAP
001A9000
00155000
001AA000
00000000
001A9000
00000000
45155554
DA755554
DA7AAAA8
DA700000
DA7AAAA8
DA700000
DA700000
DA700000
DA7AA400
DA700000
DA7AA400
DA755400
DA755400
DA700000
DA700000
DA755554
DA7AAAA8
DA7AAAA8
DA755554
DA7FFFF8
ENDCHAR
STARTCHAR edotaccent
ENCODING 279
SWIDTH 666 0
DWIDTH 16 0
BBX 14 24 1 0
BITMAP
002A8000
00154000
002A8000
00000000
002A8000
00000000
00000000
996FFFF0
DA755550
DA7AAAA0
DA7AAAA0
DA755550
DA700000
DA7AAA90
DA755550
DA7FFFE0
DA755540
DA7AAA90
DA700000
DA755550
DA7AAAA0
DA7AAAA0
DA755550
DA7FFFF0
ENDCHAR
STARTCHAR Eogonek
ENCODING 280
SWIDTH 706 0
DWIDTH 17 0
BBX 15 27 1 -7
BITMAP
45155554
DA755554
DA7AAAA8
DA700000
DA7AAAA8
DA700000
DA700000
DA700000
DA7AA400
DA700000
DA7AA400
DA755400
DA755400
DA700000
DA700000
DA755554
DA7AAAA8
DA7AAAA8
DA755554
DA7FFFFC
00000280
00000228
00000690
00000698
0000069C
0000069C
00000558
ENDCHAR
STARTCHAR eogonek
ENCODING 281
SWIDTH 666 0
DWIDTH 16 0
BBX 14 24 1 -7
BITMAP
996FFFF0
DA755550
DA7AAAA0
DA7AAAA0
DA755550
DA700000
DA7AAA90
DA755550
DA7FFFE0
DA755540
DA7AAA90
DA700000
DA755550
DA7AAAA0
DA7AAAA0
DA755550
DA7FFFF0
00000640
00000CA0
00000980
00000950
00000960
00000960
00000960
ENDCHAR
STARTCHAR Ecaron
ENCODING 282
SWIDTH 706 0
DWIDTH 17 0
BBX 15 27 1 0
BITMAP
00888800
00999800
00656400
00222000
001A5000
000D8000
00000000
45155554
DA755554
DA7AAAA8
DA700000
DA7AAAA8
DA700000
DA700000
DA700000
DA7AA400
DA700000
DA7AA400
DA755400
DA755400
DA700000
DA700000
DA755554
DA7AAAA8
DA7AAAA8
DA755554
DA7FFFF8
ENDCHAR
STARTCHAR ecaron
ENCODING 283
SWIDTH 666 0
DWIDTH 16 0
BBX 14 25 1 0
BITMAP
01549400
009A6400
00972000
00665000
00298000
00198000
00000000
00000000
996FFFF0
DA755550
DA7AAAA0
DA7AAAA0
DA755550
DA700000
DA7AAA90
DA755550
DA7FFFE0
DA755540
DA7AAA90
DA700000
DA755550
DA7AAAA0
DA7AAAA0
DA755550
DA7FFFF0
ENDCHAR
STARTCHAR Gbreve
ENCODING 286
SWIDTH 908 0
DWIDTH 22 0
BBX 21 26 0 -1
BITMAP
000160540000
00009A940000
000069900000
000000000000
000005000000
0002AAB90000
00295A568000
0096956D6400
02596A928900
0962941D6600
099D6AE25400
266680198000
366600050000
259C00000000
69D800000000
69D800025880
699800025880
259C00025880
266600025880
2665905A5880
0CDA2A965880
0665A56E5880
029A15565880
00A5BABA5880
001A505A5880
00016AA40000
ENDCHAR
STARTCHAR gbreve
ENCODING 287
SWIDTH 827 0
DWIDTH 20 0
BBX 19 23 0 -1
BITMAP
0005415000
0006698000
0001AA4000
0000000000
0001AA4000
002E55B400
0096FE9A00
0369146580
09A6AA9A00
1999696400
2362968000
2699004000
6998000000
69D8001544
699800269C
259900269C
226741A69C
1A58AA669C
099696E69C
066955669C
01D6EBA69C
002941669C
0001AA4000
ENDCHAR
STARTCHAR Gdotaccent
ENCODING 288
SWIDTH 908 0
DWIDTH 22 0
BBX 21 27 0 -1
BITMAP
000015400000
000015400000
00002A900000
000000000000
00002A900000
000005000000
0002AAB90000
00295A568000
0096956D6400
02596A928900
0962941D6600
099D6AE25400
266680198000
366600050000
259C00000000
69D800000000
69D800025880
699800025880
259C00025880
266600025880
2665905A5880
0CDA2A965880
0665A56E5880
029A15565880
00A5BABA5880
001A505A5880
00016AA40000
ENDCHAR
STARTCHAR gdotaccent
ENCODING 289
SWIDTH 827 0
DWIDTH 20 0
BBX 19 25 0 -1
BITMAP
0000550000
0000550000
0000AA0000
0000000000
0000AA0000
0000000000
0001AA4000
002E55B400
0096FE9A00
0369146580
09A6AA9A00
1999696400
2362968000
2699004000
6998000000
69D8001544
699800269C
259900269C
226741A69C
1A58AA669C
099696E69C
066955669C
01D6EBA69C
002941669C
0001AA4000
ENDCHAR
STARTCHAR Gcommaaccent
ENCODING 290
SWIDTH 908 0
DWIDTH 22 0
BBX 21 31 0 -10
BITMAP
000005000000
0002AAB90000
00295A568000
0096956D6400
02596A928900
0962941D6600
099D6AE25400
266680198000
366600050000
259C00000000
69D800000000
69D800025880
699800025880
259C00025880
266600025880
2665905A5880
0CDA2A965880
0665A56E5880
029A15565880
00A5BABA5880
001A505A5880
00016AA40000
000010400000
000036900000
000036900000
000036900000
000006900000
000019800000
000025800000
00002A400000
000010000000
ENDCHAR
STARTCHAR gcommaaccent
ENCODING 291
SWIDTH 827 0
DWIDTH 20 0
BBX 19 19 0 -1
BITMAP
0001AA4000
002E55B400
0096FE9A00
0369146580
09A6AA9A00
1999696400
2362968000
2699004000
6998000000
69D8001544
699800269C
259900269C
226741A69C
1A58AA669C
099696E69C
066955669C
01D6EBA69C
002941669C
0001AA4000
ENDCHAR
STARTCHAR Hcircumflex
ENCODING 292
SWIDTH 901 0
DWIDTH 22 0
BBX 20 27 1 0
BITMAP
0000950000
0000A60000
0001660000
0002194000
00065C8000
0009859000
0000000000
4510000511
DA70001626
DA70001626
DA70001626
DA70001626
DA70001626
DA70001626
DA70001626
DA7AAAB626
DA70001626
DA7AAAA626
DA75556626
DA75556626
DA70001626
DA70001626
DA70001626
DA70001626
DA70001626
DA70001626
DA70001626
ENDCHAR
STARTCHAR hcircumflex
ENCODING 293
SWIDTH 830 0
DWIDTH 20 0
BBX 18 25 1 0
BITMAP
0001940000
0003C80000
0006590000
0009660000
0009A60000
0016594000
0000000000
0000000000
9960009620
DA70009620
DA70009620
DA70009620
DA70009620
DA70009620
DA7FFF9620
DA75559620
DA7AAA9620
DA7AAA9620
DA75559620
DA70009620
DA70009620
DA70009620
DA70009620
DA70009620
DA70009620
ENDCHAR
STARTCHAR Hbar
ENCODING 294
SWIDTH 901 0
DWIDTH 22 0
BBX 23 20 -1 0
BITMAP
045100005110
0DA600016260
0DA600016260
ADA66AA96258
5DA655556264
5DA66AA96268
0DA600016260
0DA600016260
0DA6AAAB6260
0DA640016260
0DA6AAAA6260
0DA655566260
0DA655566260
0DA600016260
0DA600016260
0DA600016260
0DA600016260
0DA600016260
0DA600016260
0DA600016260
ENDCHAR
STARTCHAR hbar
ENCODING 295
SWIDTH 830 0
DWIDTH 20 0
BBX 22 17 -1 0
BITMAP
099600096200
0DA600096200
5DA66A996290
5DA655596240
5DA655596240
0DA600096200
0DA6FFF96200
0DA655596200
0DA6AAA96200
0DA6AAA96200
0DA655596200
0DA600096200
0DA600096200
0DA600096200
0DA600096200
0DA600096200
0DA600096200
ENDCHAR
STARTCHAR Itilde
ENCODING 296
SWIDTH 338 0
DWIDTH 8 0
BBX 14 26 -3 0
BITMAP
1AAAA150
64000260
8BAAA920
98555590
546AA500
00000000
00451000
00DA7000
00DA7000
00DA7000
00DA7000
00DA7000
00DA7000
00DA7000
00DA7000
00DA7000
00DA7000
00DA7000
00DA7000
00DA7000
00DA7000
00DA7000
00DA7000
00DA7000
00DA7000
00DA7000
ENDCHAR
STARTCHAR itilde
ENCODING 297
SWIDTH 337 0
DWIDTH 8 0
BBX 14 23 -3 0
BITMAP
1AAAA150
64000260
8BAAA920
98555590
546AA500
00000000
00996000
00DA7000
00DA7000
00DA7000
00DA7000
00DA7000
00DA7000
00DA7000
00DA7000
00DA7000
00DA7000
00DA7000
00DA7000
00DA7000
00DA7000
00DA7000
00DA7000
ENDCHAR
STARTCHAR Imacron
ENCODING 298
SWIDTH 338 0
DWIDTH 8 0
BBX 6 20 1 0
BITMAP
4510
DA70
DA70
DA70
DA70
DA70
DA70
DA70
DA70
DA70
DA70
DA70
DA70
DA70
DA70
DA70
DA70
DA70
DA70
DA70
ENDCHAR
STARTCHAR imacron
ENCODING 299
SWIDTH 337 0
DWIDTH 8 0
BBX 6 17 1 0
BITMAP
9960
DA70
DA70
DA70
DA70
DA70
DA70
DA70
DA70
DA70
DA70
DA70
DA70
DA70
DA70
DA70
DA70
ENDCHAR
STARTCHAR Ibreve
ENCODING 300
SWIDTH 338 0
DWIDTH 8 0
BBX 8 25 0 0
BITMAP
5415
6699
1AA4
0000
0000
1144
369C
369C
369C
369C
369C
369C
369C
369C
369C
369C
369C
369C
369C
369C
369C
369C
369C
369C
369C
ENDCHAR
STARTCHAR ibreve
ENCODING 301
SWIDTH 337 0
DWIDTH 8 0
BBX 8 22 0 0
BITMAP
5415
6699
1AA4
0000
0000
2658
369C
369C
369C
369C
369C
369C
369C
369C
369C
369C
369C
369C
369C
369C
369C
369C
ENDCHAR
STARTCHAR Iogonek
ENCODING 302
SWIDTH 338 0
DWIDTH 8 0
BBX 6 27 1 -7
BITMAP
4510
DA70
DA70
DA70
DA70
DA70
DA70
DA70
DA70
DA70
DA70
DA70
DA70
DA70
DA70
DA70
DA70
DA70
DA70
DBF0
0A00
08A0
1940
1A60
1A70
1A70
1560
ENDCHAR
STARTCHAR iogonek
ENCODING 303
SWIDTH 337 0
DWIDTH 8 0
BBX 6 24 1 -7
BITMAP
9960
DA70
DA70
DA70
DA70
DA70
DA70
DA70
DA70
DA70
DA70
DA70
DA70
DA70
DA70
DA70
DBF0
0A40
0CA0
1940
1A60
1A60
1A60
0560
ENDCHAR
STARTCHAR Idotaccent
ENCODING 304
SWIDTH 338 0
DWIDTH 8 0
BBX 6 26 1 0
BITMAP
1540
1540
2A80
0000
2A80
0000
4510
DA70
DA70
DA70
DA70
DA70
DA70
DA70
DA70
DA70
DA70
DA70
DA70
DA70
DA70
DA70
DA70
DA70
DA70
DA70
ENDCHAR
STARTCHAR dotlessi
ENCODING 305
SWIDTH 337 0
DWIDTH 8 0
BBX 6 17 1 0
BITMAP
9960
DA70
DA70
DA70
DA70
DA70
DA70
DA70
DA70
DA70
DA70
DA70
DA70
DA70
DA70
DA70
DA70
ENDCHAR
STARTCHAR IJ
ENCODING 306
SWIDTH 774 0
DWIDTH 19 0
BBX 17 21 1 -1
BITMAP
4510014440
DA70058980
DA70058980
DA70058980
DA70058980
DA70058980
DA70058980
DA70058980
DA70058980
DA70058980
DA70058980
DA70058980
DA70058980
DA70058940
DA7009D940
DA71A66600
DA705A6600
DA70559900
DA71AE2400
DA7005D000
0001E90000
ENDCHAR
STARTCHAR ij
ENCODING 307
SWIDTH 729 0
DWIDTH 18 0
BBX 16 20 1 -3
BITMAP
99601625
DA601625
DA601625
DA601625
DA601625
DA601625
DA601625
DA601625
DA601625
DA601625
DA601625
DA601625
DA602625
DA60A669
DA60599C
DA61E658
DA601960
0001A580
00006E00
00015000
ENDCHAR
STARTCHAR Jcircumflex
ENCODING 308
SWIDTH 434 0
DWIDTH 10 0
BBX 10 28 0 -1
BITMAP
002200
006640
008D80
019980
026650
026220
000000
011140
027650
027650
027650
027650
027650
027650
027650
027650
027650
027650
027650
027650
027690
066690
6999C0
565980
556600
6B9900
01A400
7A4000
ENDCHAR
STARTCHAR jcircumflex
ENCODING 309
SWIDTH 393 0
DWIDTH 9 0
BBX 9 28 0 -3
BITMAP
008800
01A900
023600
066600
099980
098880
000000
000000
058940
098940
098940
098940
098940
098940
098940
098940
098940
098940
098940
098940
09DA40
699640
576300
799900
065800
64A000
1B4000
540000
ENDCHAR
STARTCHAR Kcommaaccent
ENCODING 310
SWIDTH 815 0
DWIDTH 20 0
BBX 18 29 1 -9
BITMAP
4510011110
DA70036660
DA70099980
DA70099980
DA70266600
DA70266600
DA70999800
DA70999800
DA72667000
DA72666000
DA76599000
DA72326000
DA71966400
DA708C9800
DA70659900
DA70232600
DA70196640
DA7008C980
DA70066990
DA70027360
0001040000
0002690000
0002690000
0002690000
0000690000
0001980000
0002580000
0002A00000
0001000000
ENDCHAR
STARTCHAR kcommaaccent
ENCODING 311
SWIDTH 801 0
DWIDTH 19 0
BBX 18 26 1 -9
BITMAP
9960022660
DA70099980
DA70099980
DA70266200
DA70666900
DA70989800
DA719A6400
DA72666000
DA76599000
DA72666000
DA71666400
DA70899800
DA70659900
DA70266600
DA70199640
DA70099880
DA70026650
0001040000
0006980000
0006980000
0006980000
0000980000
0001CC0000
0002580000
0002A00000
0001000000
ENDCHAR
STARTCHAR kgreenlandic
ENCODING 312
SWIDTH 801 0
DWIDTH 19 0
BBX 18 17 1 0
BITMAP
9960022660
DA70099980
DA70099980
DA70266200
DA70666900
DA70989800
DA719A6400
DA72666000
DA76599000
DA72666000
DA71666400
DA70899800
DA70659900
DA70266600
DA70199640
DA70099880
DA70026650
ENDCHAR
STARTCHAR Lacute
ENCODING 313
SWIDTH 604 0
DWIDTH 15 0
BBX 14 27 1 0
BITMAP
00000140
00001A10
0001E1D0
001E2D00
0052D000
00090000
00000000
45100000
DA700000
DA700000
DA700000
DA700000
DA700000
DA700000
DA700000
DA700000
DA700000
DA700000
DA700000
DA700000
DA700000
DA700000
DA755500
DA7AAA40
DA7AAA40
DA755540
DA7FFF80
ENDCHAR
STARTCHAR lacute
ENCODING 314
SWIDTH 583 0
DWIDTH 14 0
BBX 13 25 1 0
BITMAP
00009000
000A5400
00A5A400
0A5A4000
15A40000
06400000
00000000
00000000
99600000
DA700000
DA700000
DA700000
DA700000
DA700000
DA700000
DA700000
DA700000
DA700000
DA700000
DA700000
DA755500
DA7AAA00
DA7AAA00
DA755500
DA7FFF40
ENDCHAR
STARTCHAR Lcommaaccent
ENCODING 315
SWIDTH 604 0
DWIDTH 15 0
BBX 13 29 1 -9
BITMAP
45100000
DA700000
DA700000
DA700000
DA700000
DA700000
DA700000
DA700000
DA700000
DA700000
DA700000
DA700000
DA700000
DA700000
DA700000
DA755500
DA7AAA40
DA7AAA40
DA755540
DA7FFF80
00440000
008D8000
008D8000
008D8000
00098000
00694000
00520000
006D0000
00500000
ENDCHAR
STARTCHAR lcommaaccent
ENCODING 316
SWIDTH 583 0
DWIDTH 14 0
BBX 13 26 1 -9
BITMAP
99600000
DA700000
DA700000
DA700000
DA700000
DA700000
DA700000
DA700000
DA700000
DA700000
DA700000
DA700000
DA755500
DA7AAA00
DA7AAA00
DA755500
DA7FFF40
00450000
00DA4000
00DA4000
00DA4000
001A4000
00664000
00960000
00A90000
00400000
ENDCHAR
STARTCHAR Lcaron
ENCODING 317
SWIDTH 856 0
DWIDTH 21 0
BBX 19 21 1 0
BITMAP
0000000044
4510000588
DA70000588
DA70000588
DA70000088
DA70000188
DA70000624
DA700006A0
DA70000100
DA70000000
DA70000000
DA70000000
DA70000000
DA70000000
DA70000000
DA70000000
DA75550000
DA7AAA4000
DA7AAA4000
DA75554000
DA7FFF8000
ENDCHAR
STARTCHAR lcaron
ENCODING 318
SWIDTH 584 0
DWIDTH 14 0
BBX 13 18 1 0
BITMAP
00000100
9961A700
DA61A700
DA61A700
DA602700
DA607300
DA609600
DA60A800
DA604000
DA600000
DA600000
DA600000
DA600000
DA655500
DA6AAA00
DA6AAA00
DA655500
DA6FFF40
ENDCHAR
STARTCHAR Ldot
ENCODING 319
SWIDTH 604 0
DWIDTH 15 0
BBX 13 20 1 0
BITMAP
45100000
DA700000
DA700000
DA700000
DA700000
DA700000
DA700000
DA71A900
DA715500
DA71AA00
DA700000
DA71A900
DA700000
DA700000
DA700000
DA755500
DA7AAA40
DA7AAA40
DA755540
DA7FFF80
ENDCHAR
STARTCHAR ldot
ENCODING 320
SWIDTH 582 0
DWIDTH 14 0
BBX 13 17 1 0
BITMAP
99600000
DA600000
DA600000
DA61A900
DA615500
DA61AA00
DA600000
DA61A900
DA600000
DA600000
DA600000
DA600000
DA655500
DA6AAA00
DA6AAA00
DA655500
DA6FFF40
ENDCHAR
STARTCHAR Lslash
ENCODING 321
SWIDTH 604 0
DWIDTH 15 0
BBX 16 20 -2 0
BITMAP
01144000
03698000
03698000
03698000
03698000
03698680
03699540
03699A40
17698180
63699900
67698000
53698000
67698000
03698000
03698000
03699554
0369AAA9
0369AAA9
03699555
0369BFFE
ENDCHAR
STARTCHAR lslash
ENCODING 322
SWIDTH 581 0
DWIDTH 14 0
BBX 16 17 -2 0
BITMAP
02658000
03698000
03698000
03698180
03699940
03698680
03699440
67699A40
17698000
53698000
67698000
53698000
03699554
0369AAA8
0369AAA8
03699554
0369BFFD
ENDCHAR
STARTCHAR Nacute
ENCODING 323
SWIDTH 877 0
DWIDTH 21 0
BBX 19 27 1 0
BITMAP
0000000500
0000006940
0000069780
0000687400
0000874000
0000240000
0000000000
4444001144
E66600369C
E66640369C
C99980369C
C99990369C
D66370369C
D99998369C
D99999369C
DA7276369C
DA5999669C
DA5999969C
DA6666669C
DA7266659C
DA70CCDC9C
DA7066669C
DA7026665C
DA7009998C
DA7009999C
DA7002237C
DA7001999C
ENDCHAR
STARTCHAR nacute
ENCODING 324
SWIDTH 787 0
DWIDTH 19 0
BBX 17 25 1 0
BITMAP
0000001400
000001A100
00001A1D00
0001E2D000
00052D0000
0000900000
0000000000
0000000000
9999005880
E666005880
E666405880
CCCCC05880
DA66605880
DA66605880
D999985880
D999995880
DA73365880
DA5A669880
DA4CCCC880
DA46666880
DA42666480
DA41999880
DA40999980
DA40333780
DA40199A80
ENDCHAR
STARTCHAR Ncommaaccent
ENCODING 325
SWIDTH 877 0
DWIDTH 21 0
BBX 19 29 1 -9
BITMAP
4444001144
E66600369C
E66640369C
C99980369C
C99990369C
D66370369C
D99998369C
D99999369C
DA7276369C
DA5999669C
DA5999969C
DA6666669C
DA7266659C
DA70CCDC9C
DA7066669C
DA7026665C
DA7009998C
DA7009999C
DA7002237C
DA7001999C
0001110000
0002760000
0002760000
0002760000
0000360000
0000A60000
0001490000
0001B40000
0000400000
ENDCHAR
STARTCHAR ncommaaccent
ENCODING 326
SWIDTH 787 0
DWIDTH 19 0
BBX 17 26 1 -9
BITMAP
9999005880
E666005880
E666405880
CCCCC05880
DA66605880
DA66605880
D999985880
D999995880
DA73365880
DA5A669880
DA4CCCC880
DA46666880
DA42666480
DA41999880
DA40999980
DA40333780
DA40199A80
0004400000
0009D80000
0009D80000
0009D80000
0000D80000
0006940000
0005200000
0006D00000
0005000000
ENDCHAR
STARTCHAR Ncaron
ENCODING 327
SWIDTH 877 0
DWIDTH 21 0
BBX 19 27 1 0
BITMAP
0008888000
0009998000
0006564000
0002320000
0001A50000
0000D80000
0000000000
4444001144
E66600369C
E66640369C
C99980369C
C99990369C
D66370369C
D99998369C
D99999369C
DA7276369C
DA5999669C
DA5999969C
DA6666669C
DA7266659C
DA70CCDC9C
DA7066669C
DA7026665C
DA7009998C
DA7009999C
DA7002237C
DA7001999C
ENDCHAR
STARTCHAR ncaron
ENCODING 328
SWIDTH 787 0
DWIDTH 19 0
BBX 17 25 1 0
BITMAP
0026220000
0027660000
0019980000
000CD80000
0006A40000
0003600000
0000000000
0000000000
9999005880
E666005880
E666405880
CCCCC05880
DA66605880
DA66605880
D999985880
D999995880
DA73365880
DA5A669880
DA4CCCC880
DA46666880
DA42666480
DA41999880
DA40999980
DA40333780
DA40199A80
ENDCHAR
STARTCHAR Eng
ENCODING 330
SWIDTH 874 0
DWIDTH 21 0
BBX 19 28 1 -8
BITMAP
4444001144
E66600259C
E66640259C
CD8CC0259C
C66660259C
D66664259C
D9999C259C
D999A6259C
DA6666659C
DA5999659C
DA5999259C
DA6333659C
DA6199659C
DA6099259C
DA6033259C
DA6019659C
DA6009659C
DA6006259C
DA6002659C
DA6000659C
0000006588
00000599D8
00000569A4
00000AE630
0000001990
00000A9640
0000056900
00000A5000
ENDCHAR
STARTCHAR eng
ENCODING 331
SWIDTH 691 0
DWIDTH 17 0
BBX 15 24 1 -7
BITMAP
99990894
F6660894
E6664894
CCCCC894
DA666894
DA666894
D9998894
D9999894
DA732894
DA595894
DA4CC894
DA466894
DA426894
DA418894
DA409894
DA402894
DA401894
00000894
00000D94
00007660
00001A60
0000A580
00005A00
00005000
ENDCHAR
STARTCHAR Omacron
ENCODING 332
SWIDTH 933 0
DWIDTH 22 0
BBX 22 22 0 -1
BITMAP
000005000000
0002AAB90000
00295A568000
0096956D6400
02596A928900
0962955D6300
099D6AA65980
2666801D99C0
366600066690
259C00026360
69D80001A760
69D80001A620
69880001A760
269800027650
276600066590
166990698D80
0C9A1A976640
0665E5A89600
018A55475800
0065BAA9A000
000A555B4000
00006AA40000
ENDCHAR
STARTCHAR omacron
ENCODING 333
SWIDTH 833 0
DWIDTH 20 0
BBX 20 19 0 -1
BITMAP
0001AA4000
002E55B400
0096FE8A00
0369146580
09A6AA8A60
1999696664
2362969998
269900659C
6998003658
69D8002259
6998003258
259900659C
2267469898
1A58A96664
0996969A60
0669556980
01D6EB9600
0029416800
0001AA4000
ENDCHAR
STARTCHAR Obreve
ENCODING 334
SWIDTH 933 0
DWIDTH 22 0
BBX 22 26 0 -1
BITMAP
000160540000
00009A940000
000069900000
000000000000
000005000000
0002AAB90000
00295A568000
0096956D6400
02596A928900
0962955D6300
099D6AA65980
2666801D99C0
366600066690
259C00026360
69D80001A760
69D80001A620
69880001A760
269800027650
276600066590
166990698D80
0C9A1A976640
0665E5A89600
018A55475800
0065BAA9A000
000A555B4000
00006AA40000
ENDCHAR
STARTCHAR obreve
ENCODING 335
SWIDTH 833 0
DWIDTH 20 0
BBX 20 23 0 -1
BITMAP
0005415000
0006698000
0001AA4000
0000000000
0001AA4000
002E55B400
0096FE8A00
0369146580
09A6AA8A60
1999696664
2362969998
269900659C
6998003658
69D8002259
6998003258
259900659C
2267469898
1A58A96664
0996969A60
0669556980
01D6EB9600
0029416800
0001AA4000
ENDCHAR
STARTCHAR Ohungarumlaut
ENCODING 336
SWIDTH 933 0
DWIDTH 22 0
BBX 23 28 0 -1
BITMAP
000001800060
00001A500694
0001A5A06978
001A5A069780
0025A0087800
000600024000
000005000000
0002AAB90000
00295A568000
0096956D6400
02596A928900
0962955D6300
099D6AA65980
2666801D99C0
366600066690
259C00026360
69D80001A760
69D80001A620
69880001A760
269800027650
276600066590
166990698D80
0C9A1A976640
0665E5A89600
018A55475800
0065BAA9A000
000A555B4000
00006AA40000
ENDCHAR
STARTCHAR ohungarumlaut
ENCODING 337
SWIDTH 833 0
DWIDTH 20 0
BBX 22 26 0 -1
BITMAP
000005000140
000069401E10
00069781D2D0
0068781D2900
008740569000
002400090000
000000000000
0001AA400000
002E55B40000
0096FE8A0000
036914658000
09A6AA8A6000
199969666400
236296999800
269900659C00
699800365800
69D800225900
699800325800
259900659C00
226746989800
1A58A9666400
0996969A6000
066955698000
01D6EB960000
002941680000
0001AA400000
ENDCHAR
STARTCHAR OE
ENCODING 338
SWIDTH 1317 0
DWIDTH 32 0
BBX 31 22 0 -1
BITMAP
0000050000000000
0002AAB911155554
00295A56A6355554
0096956D663AAAA8
02596A92A6200000
09669419663AAAA8
099D7AA256200000
2666801DA6200000
366A000666200000
659C0002563AA400
69D8000196200000
69D80001963AA400
6988000196355000
2698000266355000
2666000666200000
16699069A6200000
089A1A9766255550
0665E5A8A63AAAA4
018A5547563AAAA4
0065BAA4A6255554
000A541B563FFFF8
00006AA400000000
ENDCHAR
STARTCHAR oe
ENCODING 339
SWIDTH 1174 0
DWIDTH 28 0
BBX 28 19 0 -1
BITMAP
0001AA40000000
002E55B65BFFFD
0096FE92595554
036914665AAAA8
09A6AA865A5554
19986976595554
2322968A590000
269900625AAAA4
69880032595554
69D800225BFFF8
69980032595550
259900625AAAA8
2223468A590000
1A58A926595554
099696925AAAA8
066855665AAAA8
01D6EB92595554
002941665BFFFD
0001AA40000000
ENDCHAR
STARTCHAR Racute
ENCODING 340
SWIDTH 843 0
DWIDTH 20 0
BBX 19 27 1 0
BITMAP
0000060000
0000694000
0006968000
0069680000
0096800000
0018000000
0000000000
5555554000
D55555A800
CAAAAA9640
D800006890
DAEAABD660
DA55556664
DA7AAADD94
DA70005898
DA75559C94
DA76A95964
DA76AAE670
DA71551990
DA77FF9680
DA71556D00
DA76ABB600
DA70096700
DA70099640
DA70059980
DA700659C0
DA70036590
ENDCHAR
STARTCHAR Rcommaaccent
ENCODING 342
SWIDTH 843 0
DWIDTH 20 0
BBX 19 29 1 -9
BITMAP
5555554000
D55555A800
CAAAAA9640
D800006890
DAEAABD660
DA55556664
DA7AAADD94
DA70005898
DA75559C94
DA76A95964
DA76AAE670
DA71551990
DA77FF9680
DA71556D00
DA76ABB600
DA70096700
DA70099640
DA70059980
DA700659C0
DA70036590
0000440000
00059C0000
00059C0000
00059C0000
00008C0000
0001C80000
0005240000
0006A00000
0001000000
ENDCHAR
STARTCHAR rcommaaccent
ENCODING 343
SWIDTH 831 0
DWIDTH 20 0
BBX 18 26 1 -9
BITMAP
BFFFFFA000
C555555A00
DEAAAAA680
D9AAA95990
DA9555A360
DA6AAA5A60
DA7000C960
DA76AA9960
DA70006670
DA76AA99A0
DA755565C0
DA75555B00
DA76AABC00
DA70369800
DA70166600
DA70096700
DA70099A40
0004400000
0008940000
0008940000
0008940000
0000940000
0006640000
0005300000
0006D00000
0005000000
ENDCHAR
STARTCHAR Rcaron
ENCODING 344
SWIDTH 843 0
DWIDTH 20 0
BBX 19 27 1 0
BITMAP
0585500000
0699C00000
0319800000
0266000000
00B6000000
00A9000000
0000000000
5555554000
D55555A800
CAAAAA9640
D800006890
DAEAABD660
DA55556664
DA7AAADD94
DA70005898
DA75559C94
DA76A95964
DA76AAE670
DA71551990
DA77FF9680
DA71556D00
DA76ABB600
DA70096700
DA70099640
DA70059980
DA700659C0
DA70036590
ENDCHAR
STARTCHAR rcaron
ENCODING 345
SWIDTH 831 0
DWIDTH 20 0
BBX 18 25 1 0
BITMAP
0015494000
000D964000
0009620000
0006650000
0002980000
0001D80000
0000000000
0000000000
BFFFFFA000
C555555A00
DEAAAAA680
D9AAA95990
DA9555A360
DA6AAA5A60
DA7000C960
DA76AA9960
DA70006670
DA76AA99A0
DA755565C0
DA75555B00
DA76AABC00
DA70369800
DA70166600
DA70096700
DA70099A40
ENDCHAR
STARTCHAR Sacute
ENCODING 346
SWIDTH 682 0
DWIDTH 16 0
BBX 16 28 0 -1
BITMAP
00000014
000001E1
00001E2D
0001D2D0
00052900
00009000
00014000
006AAA80
02869468
09A95A95
269AE964
36744580
659AA900
69C80000
658AA500
36655680
265BF970
0CA55698
0756A998
00BA9665
00016636
00102676
015AA765
01A56D99
0A555698
65BAA960
0A900680
006AA900
ENDCHAR
STARTCHAR sacute
ENCODING 347
SWIDTH 683 0
DWIDTH 16 0
BBX 16 26 0 -1
BITMAP
00000014
000001E1
00001E2D
0001D2D0
00052900
00009000
00000000
00015000
01BAAB90
0656A568
19A55695
325BF964
65900180
69800000
266AA500
268556D0
1D6FF924
06954188
005AAA65
00000276
01400726
096EF999
16941698
295AA460
02E96B40
00055000
ENDCHAR
STARTCHAR Scircumflex
ENCODING 348
SWIDTH 682 0
DWIDTH 16 0
BBX 16 28 0 -1
BITMAP
00066000
000A6000
00099400
0025C800
00325900
00652600
00014000
006AAA80
02869468
09A95A95
269AE964
36744580
659AA900
69C80000
658AA500
36655680
265BF970
0CA55698
0756A998
00BA9665
00016636
00102676
015AA765
01A56D99
0A555698
65BAA960
0A900680
006AA900
ENDCHAR
STARTCHAR scircumflex
ENCODING 349
SWIDTH 683 0
DWIDTH 16 0
BBX 16 26 0 -1
BITMAP
00062000
000A6000
00099400
0015C800
00325900
00652600
00000000
00015000
01BAAB90
0656A568
19A55695
325BF964
65900180
69800000
266AA500
268556D0
1D6FF924
06954188
005AAA65
00000276
01400726
096EF999
16941698
295AA460
02E96B40
00055000
ENDCHAR
STARTCHAR Scedilla
ENCODING 350
SWIDTH 682 0
DWIDTH 16 0
BBX 16 29 0 -8
BITMAP
00014000
006AAA80
02869468
09A95A95
269AE964
36744580
659AA900
69C80000
658AA500
36655680
265BF970
0CA55698
0756A998
00BA9665
00016636
00102676
015AA765
01A56D99
0A555698
65BAA960
0A900680
006BF900
002A5000
00919000
00CE9000
00D80000
00CE9000
00914000
002F9000
ENDCHAR
STARTCHAR scedilla
ENCODING 351
SWIDTH 683 0
DWIDTH 16 0
BBX 16 26 0 -8
BITMAP
00015000
01BAAB90
0656A568
19A55695
325BF964
65900180
69800000
266AA500
268556D0
1D6FF924
06954188
005AAA65
00000276
01400726
096EF999
16941698
295AA460
02E96B40
0007A000
002A5000
00919000
00CE9000
00D80000
00CE9000
00914000
002F9000
ENDCHAR
STARTCHAR Scaron
ENCODING 352
SWIDTH 682 0
DWIDTH 16 0
BBX 16 28 0 -1
BITMAP
00252200
00236500
00199800
000CD800
000A6400
00072000
00014000
006AAA80
02869468
09A95A95
269AE964
36744580
659AA900
69C80000
658AA500
36655680
265BF970
0CA55698
0756A998
00BA9665
00016636
00102676
015AA765
01A56D99
0A555698
65BAA960
0A900680
006AA900
ENDCHAR
STARTCHAR scaron
ENCODING 353
SWIDTH 683 0
DWIDTH 16 0
BBX 16 26 0 -1
BITMAP
00252200
00236500
00199800
000CD800
000A6400
00072000
00000000
00015000
01BAAB90
0656A568
19A55695
325BF964
65900180
69800000
266AA500
268556D0
1D6FF924
06954188
005AAA65
00000276
01400726
096EF999
16941698
295AA460
02E96B40
00055000
ENDCHAR
STARTCHAR Tcommaaccent
ENCODING 354
SWIDTH 591 0
DWIDTH 14 0
BBX 14 27 0 -7
BITMAP
15555540
15555540
6AAAAA90
00000000
6AFFFA90
00DA7000
00DA7000
00DA7000
00DA7000
00DA7000
00DA7000
00DA7000
00DA7000
00DA7000
00DA7000
00DA7000
00DA7000
00DA7000
00DA7000
00DFB000
00AA4000
02464000
027A4000
02500000
027A4000
02450000
00BE4000
ENDCHAR
STARTCHAR tcommaaccent
ENCODING 355
SWIDTH 588 0
DWIDTH 14 0
BBX 14 24 0 -7
BITMAP
7FFFFFD0
15555540
6AAAAA90
2AAAAA90
15956540
00DA7000
00DA7000
00DA7000
00DA7000
00DA7000
00DA7000
00DA7000
00DA7000
00DA7000
00DA7000
00DA7000
00DFB000
00AA4000
02464000
027A0000
02500000
027A0000
02450000
00BE4000
ENDCHAR
STARTCHAR Tcaron
ENCODING 356
SWIDTH 591 0
DWIDTH 14 0
BBX 14 27 0 0
BITMAP
01549400
009A6400
00976000
00669000
0039C000
00198000
00000000
15555540
15555540
6AAAAA90
00000000
6AFFFA90
00DA7000
00DA7000
00DA7000
00DA7000
00DA7000
00DA7000
00DA7000
00DA7000
00DA7000
00DA7000
00DA7000
00DA7000
00DA7000
00DA7000
00DA7000
ENDCHAR
STARTCHAR tcaron
ENCODING 357
SWIDTH 842 0
DWIDTH 20 0
BBX 20 18 0 0
BITMAP
0000000100
7FFFFFD325
1555554325
6AAAAA9325
2AAAAA9065
1595654199
00DA70024C
00DA7001B4
00DA700140
00DA700000
00DA700000
00DA700000
00DA700000
00DA700000
00DA700000
00DA700000
00DA700000
00DA700000
ENDCHAR
STARTCHAR Tbar
ENCODING 358
SWIDTH 591 0
DWIDTH 14 0
BBX 14 20 0 0
BITMAP
15555540
15555540
6AAAAA90
00000000
6AFFFA90
00DA7000
00DA7000
00DA7000
7EDA77D0
14DA7140
29DA7690
29DA7680
15DA7540
00DA7000
00DA7000
00DA7000
00DA7000
00DA7000
00DA7000
00DA7000
ENDCHAR
STARTCHAR tbar
ENCODING 359
SWIDTH 588 0
DWIDTH 14 0
BBX 14 17 0 0
BITMAP
7FFFFFD0
15555540
6AAAAA90
2AAAAA90
15956540
00DA7000
00DA7000
00DA7000
29DA7690
00DA7000
69DA7690
15DA7540
29DA7680
00DA7000
00DA7000
00DA7000
00DA7000
ENDCHAR
STARTCHAR Utilde
ENCODING 360
SWIDTH 905 0
DWIDTH 22 0
BBX 20 27 1 -1
BITMAP
006AAA8580
02900008C0
022AAAA580
0691555A00
0142AA9400
0000000000
4510000511
9A70001A76
9A70001A76
9A70001A76
9A70001A76
9A70001A76
9A70001A76
9A70001A76
9A70001A76
9A70001A76
9A70001A76
9A70001A76
DA60001676
8998003665
599A41D998
3365A92998
199B96D620
0A74556990
0296EB9640
0079016800
0006AA4000
ENDCHAR
STARTCHAR utilde
ENCODING 361
SWIDTH 795 0
DWIDTH 19 0
BBX 17 24 1 -1
BITMAP
01AAA92100
0940006600
19EAAA8900
2605556800
111AAA5000
0000000000
9620022580
9A70022580
9A70022580
9A70022580
9A70022580
9A70022580
9A70022580
9A70022580
9A70022580
9A70032580
9A60026980
8D99199880
59A2A69940
266A5A6200
19A5559900
065AA96400
01A4069000
001AA90000
ENDCHAR
STARTCHAR Umacron
ENCODING 362
SWIDTH 905 0
DWIDTH 22 0
BBX 20 21 1 -1
BITMAP
4510000511
9A70001A76
9A70001A76
9A70001A76
9A70001A76
9A70001A76
9A70001A76
9A70001A76
9A70001A76
9A70001A76
9A70001A76
9A70001A76
DA60001676
8998003665
599A41D998
3365A92998
199B96D620
0A74556990
0296EB9640
0079016800
0006AA4000
ENDCHAR
STARTCHAR umacron
ENCODING 363
SWIDTH 795 0
DWIDTH 19 0
BBX 17 18 1 -1
BITMAP
9620022580
9A70022580
9A70022580
9A70022580
9A70022580
9A70022580
9A70022580
9A70022580
9A70022580
9A70032580
9A60026980
8D99199880
59A2A69940
266A5A6200
19A5559900
065AA96400
01A4069000
001AA90000
ENDCHAR
STARTCHAR Ubreve
ENCODING 364
SWIDTH 905 0
DWIDTH 22 0
BBX 20 26 1 -1
BITMAP
0005425000
0006A98000
00019A4000
0000000000
0000000000
4510000511
9A70001A76
9A70001A76
9A70001A76
9A70001A76
9A70001A76
9A70001A76
9A70001A76
9A70001A76
9A70001A76
9A70001A76
9A70001A76
DA60001676
8998003665
599A41D998
3365A92998
199B96D620
0A74556990
0296EB9640
0079016800
0006AA4000
ENDCHAR
STARTCHAR ubreve
ENCODING 365
SWIDTH 795 0
DWIDTH 19 0
BBX 17 23 1 -1
BITMAP
0024050000
0026A60000
000A680000
0000000000
0000000000
9620022580
9A70022580
9A70022580
9A70022580
9A70022580
9A70022580
9A70022580
9A70022580
9A70022580
9A70032580
9A60026980
8D99199880
59A2A69940
266A5A6200
19A5559900
065AA96400
01A4069000
001AA90000
ENDCHAR
STARTCHAR Uring
ENCODING 366
SWIDTH 905 0
DWIDTH 22 0
BBX 20 29 1 -1
BITMAP
0000A90000
0002564000
0006958000
0005828000
0002A98000
0001960000
0000140000
0000000000
4510000511
9A70001A76
9A70001A76
9A70001A76
9A70001A76
9A70001A76
9A70001A76
9A70001A76
9A70001A76
9A70001A76
9A70001A76
9A70001A76
DA60001676
8998003665
599A41D998
3365A92998
199B96D620
0A74556990
0296EB9640
0079016800
0006AA4000
ENDCHAR
STARTCHAR uring
ENCODING 367
SWIDTH 795 0
DWIDTH 19 0
BBX 17 26 1 -1
BITMAP
0002A00000
0009980000
0026260000
0025160000
0016A50000
0009580000
0001500000
0000000000
9620022580
9A70022580
9A70022580
9A70022580
9A70022580
9A70022580
9A70022580
9A70022580
9A70022580
9A70032580
9A60026980
8D99199880
59A2A69940
266A5A6200
19A5559900
065AA96400
01A4069000
001AA90000
ENDCHAR
STARTCHAR Uhungarumlaut
ENCODING 368
SWIDTH 905 0
DWIDTH 22 0
BBX 22 28 1 -1
BITMAP
000005000140
000068401D10
00068742D690
0078B42D6900
014B40569000
002400090000
000000000000
451000051100
9A70001A7600
9A70001A7600
9A70001A7600
9A70001A7600
9A70001A7600
9A70001A7600
9A70001A7600
9A70001A7600
9A70001A7600
9A70001A7600
9A70001A7600
DA6000167600
899800366500
599A41D99800
3365A9299800
199B96D62000
0A7455699000
0296EB964000
007901680000
0006AA400000
ENDCHAR
STARTCHAR uhungarumlaut
ENCODING 369
SWIDTH 795 0
DWIDTH 19 0
BBX 21 26 1 -1
BITMAP
000014000800
0002D500A500
002D691A5A40
029691A5A400
0569025A4000
019000600000
000000000000
000000000000
962002258000
9A7002258000
9A7002258000
9A7002258000
9A7002258000
9A7002258000
9A7002258000
9A7002258000
9A7002258000
9A7003258000
9A6002698000
8D9919988000
59A2A6994000
266A5A620000
19A555990000
065AA9640000
01A406900000
001AA9000000
ENDCHAR
STARTCHAR Uogonek
ENCODING 370
SWIDTH 905 0
DWIDTH 22 0
BBX 20 28 1 -8
BITMAP
4510000511
9A70001A76
9A70001A76
9A70001A76
9A70001A76
9A70001A76
9A70001A76
9A70001A76
9A70001A76
9A70001A76
9A70001A76
9A70001A76
DA60001676
8998003665
599A41D998
3365A92998
199B96D620
0A74556990
0296EB9640
0079016800
0006FE4000
0003400000
0009740000
0008C00000
0008940000
0008980000
0008980000
0008940000
ENDCHAR
STARTCHAR uogonek
ENCODING 371
SWIDTH 794 0
DWIDTH 19 0
BBX 17 25 1 -8
BITMAP
9620022580
9670032580
9670032580
9670032580
9670032580
9670032580
9670032580
9670032580
9670032580
9670036580
9A60026980
8999199880
59A2A29940
26696A6200
19A5569900
065AA96400
01A4069000
001FE90000
0029000000
0022800000
0065000000
0069800000
0069C00000
0069C00000
0015800000
ENDCHAR
STARTCHAR Ycircumflex
ENCODING 374
SWIDTH 789 0
DWIDTH 19 0
BBX 19 27 0 0
BITMAP
0000880000
0001A90000
0002360000
0006660000
0009998000
0008888000
0000000000
4450004444
6598009960
266901A660
1A66026580
099A469980
0699899A40
0265996600
01A6266900
0099659800
005999A400
0026966000
0016665000
000A598000
0009994000
0005894000
0005894000
0005894000
0005894000
0005894000
0005894000
ENDCHAR
STARTCHAR ycircumflex
ENCODING 375
SWIDTH 733 0
DWIDTH 18 0
BBX 17 25 0 0
BITMAP
0002540000
0002D80000
0005980000
0008650000
0019620000
0026164000
0000000000
0000000000
5994026580
2698069980
1666099600
09965A6600
0599A65900
0266699800
016699A400
0089966000
0056669000
0022598000
001D9A4000
000DA70000
000DA70000
000DA70000
000DA70000
000DA70000
000DA70000
ENDCHAR
STARTCHAR Ydieresis
ENCODING 376
SWIDTH 789 0
DWIDTH 19 0
BBX 19 25 0 0
BITMAP
0051010400
01A7025900
01A7025900
0001010400
0000000000
4450004444
6598009960
266901A660
1A66026580
099A469980
0699899A40
0265996600
01A6266900
0099659800
005999A400
0026966000
0016665000
000A598000
0009994000
0005894000
0005894000
0005894000
0005894000
0005894000
0005894000
ENDCHAR
STARTCHAR Zacute
ENCODING 377
SWIDTH 854 0
DWIDTH 21 0
BBX 19 27 1 0
BITMAP
0000000500
0000007440
00000B4A40
0000B5A400
00015A4000
0000240000
0000000000
5555555554
55555555B4
AAAAAAA190
0000000A64
AAAAA96590
5555429A64
AAA9196590
0000A69A64
0006596590
0029A69A00
0196596400
0A69A68000
6597590000
9A69A00000
65D64BFFF4
9A68555550
7592AAAAA4
9A6AAAAAA4
6455555550
FFFFFFFFF4
ENDCHAR
STARTCHAR zacute
ENCODING 378
SWIDTH 714 0
DWIDTH 17 0
BBX 17 25 0 0
BITMAP
0000001800
000001A500
00001A5A00
0001A5A000
00025E0000
0000A00000
0000000000
0000000000
3FFFD88840
1555266540
2AAA666200
1555C99900
1556599800
0006732000
0009999000
0019998000
0033360000
0099A60000
0199880000
0326640000
0966655500
18CCDAAA00
26665AAA00
6666155500
4CD9BFFF40
ENDCHAR
STARTCHAR Zdotaccent
ENCODING 379
SWIDTH 854 0
DWIDTH 21 0
BBX 19 26 1 0
BITMAP
0001540000
0001540000
0002A90000
0000000000
0002A90000
0000000000
5555555554
55555555B4
AAAAAAA190
0000000A64
AAAAA96590
5555429A64
AAA9196590
0000A69A64
0006596590
0029A69A00
0196596400
0A69A68000
6597590000
9A69A00000
65D64BFFF4
9A68555550
7592AAAAA4
9A6AAAAAA4
6455555550
FFFFFFFFF4
ENDCHAR
STARTCHAR zdotaccent
ENCODING 380
SWIDTH 714 0
DWIDTH 17 0
BBX 17 24 0 0
BITMAP
0005540000
0005540000
0006A80000
0000000000
0006A80000
0000000000
0000000000
3FFFD88840
1555266540
2AAA666200
1555C99900
1556599800
0006732000
0009999000
0019998000
0033360000
0099A60000
0199880000
0326640000
0966655500
18CCDAAA00
26665AAA00
6666155500
4CD9BFFF40
ENDCHAR
STARTCHAR Zcaron
ENCODING 381
SWIDTH 854 0
DWIDTH 21 0
BBX 19 27 1 0
BITMAP
0015488000
000C9A4000
0009670000
0002260000
0002980000
0001C80000
0000000000
5555555554
55555555B4
AAAAAAA190
0000000A64
AAAAA96590
5555429A64
AAA9196590
0000A69A64
0006596590
0029A69A00
0196596400
0A69A68000
6597590000
9A69A00000
65D64BFFF4
9A68555550
7592AAAAA4
9A6AAAAAA4
6455555550
FFFFFFFFF4
ENDCHAR
STARTCHAR zcaron
ENCODING 382
SWIDTH 714 0
DWIDTH 17 0
BBX 17 25 0 0
BITMAP
0022160000
0016720000
0009690000
00099C0000
0006980000
0002640000
0000000000
0000000000
3FFFD88840
1555266540
2AAA666200
1555C99900
1556599800
0006732000
0009999000
0019998000
0033360000
0099A60000
0199880000
0326640000
0966655500
18CCDAAA00
26665AAA00
6666155500
4CD9BFFF40
ENDCHAR
STARTCHAR florin
ENCODING 402
SWIDTH 388 0
DWIDTH 9 0
BBX 8 23 1 -2
BITMAP
0004
01A9
0619
0C94
1A6D
1620
1620
A625
6624
A629
1620
A629
1620
1620
1620
1620
1620
1620
B760
4A50
F980
1640
A400
ENDCHAR
STARTCHAR uni01C4
ENCODING 452
SWIDTH 1740 0
DWIDTH 42 0
BBX 40 27 1 0
BITMAP
00000000000002222000
00000000000002666000
00000000000001959000
00000000000000888000
00000000000000694000
00000000000000360000
00000000000000000000
55555540001555555555
D55556B400155555555E
DAAAAA5A002AAAAAA964
D800017580000000019A
DAEAAB9A602AAAAA5964
DA55556664155550669A
DA7AAA9DD81AAA969964
DA70006598000019A69A
DA700032690000A65964
DA70002765000659A680
DA700027250029965900
DA70002765019669A000
DA700036590A69964000
DA7000998C259A680000
DA6FFE59980A6992FFFE
DA5555A720259A155555
D9AAAA5D901A646AAAAA
DAAAAAA6802696AAAAA9
C555551D001915555555
FFFFFF90002FFFFFFFFE
ENDCHAR
STARTCHAR uni01C5
ENCODING 453
SWIDTH 1601 0
DWIDTH 38 0
BBX 37 25 1 0
BITMAP
00000000000016594000
00000000000009A60000
00000000000009760000
00000000000006690000
000000000000038C0000
55555540000002980000
D55556B4000000000000
DAAAAA5A000000000000
D8000175802FFFD99940
DAEAAB9A600555199980
DA555566641AAA732600
DA7AAA9DD81555996500
DA70006598155598C800
DA700032690003666400
DA70002765000A666000
DA70002725001CCC8000
DA700027650026664000
DA700036590066660000
DA7000998C00CC990000
DA6FFE59980265980000
DA5555A7200663355500
D9AAAA5D900D9996AA40
DAAAAAA68029999AAA40
C555551D003332555540
FFFFFF9000199ABFFF40
ENDCHAR
STARTCHAR Scommaaccent
ENCODING 536
SWIDTH 682 0
DWIDTH 16 0
BBX 16 31 0 -10
BITMAP
00014000
006AAA80
02869468
09A95A95
269AE964
36744580
659AA900
69C80000
658AA500
36655680
265BF970
0CA55698
0756A998
00BA9665
00016636
00102676
015AA765
01A56D99
0A555698
65BAA960
0A900680
006AA900
00041000
00096000
00096000
00096000
00016000
00062000
00096000
000A8000
00040000
ENDCHAR
STARTCHAR scommaaccent
ENCODING 537
SWIDTH 683 0
DWIDTH 16 0
BBX 16 28 0 -10
BITMAP
00015000
01BAAB90
0656A568
19A55695
325BF964
65900180
69800000
266AA500
268556D0
1D6FF924
06954188
005AAA65
00000276
01400726
096EF999
16941698
295AA460
02E96B40
00055000
00041000
00096000
00096000
00096000
00016000
00066000
00096000
000A8000
00040000
ENDCHAR
STARTCHAR uni021A
ENCODING 538
SWIDTH 591 0
DWIDTH 14 0
BBX 14 29 0 -9
BITMAP
15555540
15555540
6AAAAA90
00000000
6AFFFA90
00DA7000
00DA7000
00DA7000
00DA7000
00DA7000
00DA7000
00DA7000
00DA7000
00DA7000
00DA7000
00DA7000
00DA7000
00DA7000
00DA7000
00DA7000
00104000
00258000
00258000
00258000
00058000
00198000
00258000
002A0000
00100000
ENDCHAR
STARTCHAR uni021B
ENCODING 539
SWIDTH 588 0
DWIDTH 14 0
BBX 14 26 0 -9
BITMAP
7FFFFFD0
15555540
6AAAAA90
2AAAAA90
15956540
00DA7000
00DA7000
00DA7000
00DA7000
00DA7000
00DA7000
00DA7000
00DA7000
00DA7000
00DA7000
00DA7000
00DA7000
00104000
00258000
00258000
00258000
00058000
00198000
00258000
002A0000
00100000
ENDCHAR
STARTCHAR uni0237
ENCODING 567
SWIDTH 393 0
DWIDTH 9 0
BBX 9 20 0 -3
BITMAP
058940
098940
098940
098940
098940
098940
098940
098940
098940
098940
098940
098940
09DA40
699640
576300
799900
065800
64A000
1B4000
540000
ENDCHAR
STARTCHAR circumflex
ENCODING 710
SWIDTH 376 0
DWIDTH 9 0
BBX 7 6 1 18
BITMAP
0980
1A50
2320
2664
9998
8888
ENDCHAR
STARTCHAR caron
ENCODING 711
SWIDTH 362 0
DWIDTH 9 0
BBX 7 6 1 18
BITMAP
9488
8D94
6660
3360
2990
1C80
ENDCHAR
STARTCHAR breve
ENCODING 728
SWIDTH 360 0
DWIDTH 9 0
BBX 7 3 1 19
BITMAP
6058
9A98
29A0
ENDCHAR
STARTCHAR dotaccent
ENCODING 729
SWIDTH 255 0
DWIDTH 6 0
BBX 4 5 1 15
BITMAP
55
55
AA
00
AA
ENDCHAR
STARTCHAR ring
ENCODING 730
SWIDTH 330 0
DWIDTH 8 0
BBX 6 7 1 18
BITMAP
1A40
9560
A5A0
A0A0
9A60
6590
0500
ENDCHAR
STARTCHAR ogonek
ENCODING 731
SWIDTH 250 0
DWIDTH 6 0
BBX 4 8 1 -7
BITMAP
1A
64
CA
98
95
96
96
96
ENDCHAR
STARTCHAR tilde
ENCODING 732
SWIDTH 665 0
DWIDTH 16 0
BBX 14 5 1 13
BITMAP
1AAAA150
64000260
8BAAA920
98555590
546AA500
ENDCHAR
STARTCHAR hungarumlaut
ENCODING 733
SWIDTH 837 0
DWIDTH 20 0
BBX 18 6 1 17
BITMAP
0006000180
0069401A50
069681A5E0
69681A5E00
968021E000
1800090000
ENDCHAR
STARTCHAR uni0307
ENCODING 775
SWIDTH 260 0
DWIDTH 6 0
BBX 5 5 1 9
BITMAP
6A00
5500
AA40
0000
AA40
ENDCHAR
STARTCHAR uni030F
ENCODING 783
SWIDTH 554 0
DWIDTH 13 0
BBX 11 9 1 17
BITMAP
941540
8C0D80
690980
360660
260270
1981A4
08C0D8
059098
010000
ENDCHAR
STARTCHAR uni0311
ENCODING 785
SWIDTH 375 0
DWIDTH 9 0
BBX 7 3 1 19
BITMAP
0A80
6564
9998
ENDCHAR
STARTCHAR uni0326
ENCODING 806
SWIDTH 274 0
DWIDTH 7 0
BBX 5 9 1 -10
BITMAP
4400
C940
C940
C940
1940
6640
5300
6D00
4000
ENDCHAR
STARTCHAR Omega
ENCODING 937
SWIDTH 92 0
DWIDTH 2 0
BBX 1 1 0 0
BITMAP
00
ENDCHAR
STARTCHAR uni00B5.dup2
ENCODING 956
SWIDTH 802 0
DWIDTH 19 0
BBX 18 20 1 -3
BITMAP
8960026650
DA60027690
DA60027690
DA60027690
DA60027690
DA60027690
DA60027690
DA60027690
DA60027690
DA60027690
DA60032590
DA64199980
DA66A59980
DA655A6640
DA65559A00
DA66AE2800
DA6146D000
DA66E90000
DA60000000
4550000000
ENDCHAR
STARTCHAR pi
ENCODING 960
SWIDTH 92 0
DWIDTH 2 0
BBX 1 1 0 0
BITMAP
00
ENDCHAR
STARTCHAR endash
ENCODING 8211
SWIDTH 473 0
DWIDTH 11 0
BBX 10 5 1 7
BITMAP
AAAA90
000000
AAAA90
555540
555540
ENDCHAR
STARTCHAR emdash
ENCODING 8212
SWIDTH 615 0
DWIDTH 15 0
BBX 13 5 1 7
BITMAP
AAAAAA80
00000000
AAAAAA80
55555540
55555540
ENDCHAR
STARTCHAR quoteleft
ENCODING 8216
SWIDTH 254 0
DWIDTH 6 0
BBX 4 8 1 12
BITMAP
05
29
96
99
94
96
96
96
ENDCHAR
STARTCHAR quoteright
ENCODING 8217
SWIDTH 251 0
DWIDTH 6 0
BBX 5 8 1 12
BITMAP
4500
9A40
9A40
9640
1600
7600
4600
A800
ENDCHAR
STARTCHAR quotesinglbase
ENCODING 8218
SWIDTH 252 0
DWIDTH 6 0
BBX 4 9 1 -4
BITMAP
40
96
96
96
16
66
96
A8
50
ENDCHAR
STARTCHAR quotedblleft
ENCODING 8220
SWIDTH 535 0
DWIDTH 13 0
BBX 11 8 1 12
BITMAP
050014
2901E4
960318
990660
940690
96069C
96069C
96069C
ENDCHAR
STARTCHAR quotedblright
ENCODING 8221
SWIDTH 532 0
DWIDTH 13 0
BBX 11 8 1 12
BITMAP
450144
9A469C
9A469C
96469C
16009C
760188
460124
A806E0
ENDCHAR
STARTCHAR quotedblbase
ENCODING 8222
SWIDTH 533 0
DWIDTH 13 0
BBX 11 9 1 -4
BITMAP
400004
96069C
96069C
96069C
16009C
6601C8
960658
A802A0
500100
ENDCHAR
STARTCHAR dagger
ENCODING 8224
SWIDTH 636 0
DWIDTH 15 0
BBX 15 20 0 0
BITMAP
00144400
00698800
00698800
00698800
15A98D54
15698954
6AA98EA4
00698800
6AA98EA4
00698800
00698800
00698800
00698800
00698800
00698800
00698800
00698800
00698800
00698800
00698800
ENDCHAR
STARTCHAR daggerdbl
ENCODING 8225
SWIDTH 648 0
DWIDTH 16 0
BBX 14 20 1 0
BITMAP
00451000
009A7000
009A7000
009A7000
AA9A7AA0
019A7000
AB9A7AA0
559A7550
AA9A7A90
009A7000
009A7000
009A7000
AB9A7AA0
019A7000
AA9A7AA0
559A7550
559A7550
009A7000
009A7000
009A7000
ENDCHAR
STARTCHAR bullet
ENCODING 8226
SWIDTH 501 0
DWIDTH 12 0
BBX 11 11 1 3
BITMAP
01A400
1D5640
62B890
990620
980260
9401A4
980160
890630
62A990
190640
02A900
ENDCHAR
STARTCHAR ellipsis
ENCODING 8230
SWIDTH 676 0
DWIDTH 16 0
BBX 15 5 1 0
BITMAP
55154550
AA2A8AA0
AA2A8AA0
55154550
FF3FDBF4
ENDCHAR
STARTCHAR perthousand
ENCODING 8240
SWIDTH 447 0
DWIDTH 11 0
BBX 10 23 0 -3
BITMAP
000450
001A60
002720
002260
002690
006980
009C80
008980
009A40
01A600
027200
022600
026900
069800
09C800
089800
09A400
1A6000
262000
226000
269000
698000
044000
ENDCHAR
STARTCHAR guilsinglleft
ENCODING 8249
SWIDTH 465 0
DWIDTH 11 0
BBX 10 12 1 3
BITMAP
000040
001A40
01A590
691A40
969190
696900
469400
A54680
A47940
0B9680
006900
0001C0
ENDCHAR
STARTCHAR guilsinglright
ENCODING 8250
SWIDTH 465 0
DWIDTH 11 0
BBX 10 12 1 3
BITMAP
800000
690000
96E000
6E1A40
91A590
1A5B80
05B950
B95680
5B9680
A5B900
5A4000
E40000
ENDCHAR
STARTCHAR fraction
ENCODING 8260
SWIDTH 447 0
DWIDTH 11 0
BBX 10 23 0 -3
BITMAP
000450
001A60
002720
002260
002690
006980
009C80
008980
009A40
01A600
027200
022600
026900
069800
09C800
089800
09A400
1A6000
262000
226000
269000
698000
044000
ENDCHAR
STARTCHAR uni2074
ENCODING 8308
SWIDTH 528 0
DWIDTH 13 0
BBX 12 16 0 4
BITMAP
001140
009980
009980
026640
036600
099900
0D9844
2664C8
3330C8
2AAAAA
155555
7FFFFE
155555
2AAAAA
000088
0000C8
ENDCHAR
STARTCHAR Euro
ENCODING 8364
SWIDTH 781 0
DWIDTH 19 0
BBX 18 22 0 -1
BITMAP
0000005000
00006EAB90
000295A550
001D695690
006686AA40
0099650180
01698AAA40
0366640000
0699900000
1989955000
199A555000
09DA400000
7999BFF000
059D800000
0269A00000
0266690540
0199D6A900
00966E5A80
0025D15550
000A5AAB90
0001A401A0
00001AAA40
ENDCHAR
STARTCHAR trademark
ENCODING 8482
SWIDTH 1503 0
DWIDTH 36 0
BBX 35 15 0 5
BITMAP
155555411100000444
15555553964000199C
6AAAAA938C8000263C
000000036690006658
6ABFFA9327300098C8
002590031994019A58
00259003698C033358
002590036666065998
0025900366660C8998
002590036599966698
002590036599926698
002590036526699698
002590036526658698
00259003650D9A4698
0025800225099A0658
ENDCHAR
STARTCHAR partialdiff
ENCODING 8706
SWIDTH 108 0
DWIDTH 3 0
BBX 1 1 0 0
BITMAP
00
ENDCHAR
STARTCHAR uni2206
ENCODING 8710
SWIDTH 108 0
DWIDTH 3 0
BBX 1 1 0 0
BITMAP
00
ENDCHAR
STARTCHAR product
ENCODING 8719
SWIDTH 521 0
DWIDTH 13 0
BBX 12 17 0 0
BITMAP
00C980
029980
032650
066630
09D964
098C98
266598
326265
659232
366366
267598
19A4D8
08D9A4
069970
036660
026780
019A80
ENDCHAR
STARTCHAR summation
ENCODING 8721
SWIDTH 108 0
DWIDTH 3 0
BBX 1 1 0 0
BITMAP
00
ENDCHAR
STARTCHAR minus
ENCODING 8722
SWIDTH 555 0
DWIDTH 13 0
BBX 12 5 1 8
BITMAP
AAAAA9
555554
BFFFFD
555554
AAAAA9
ENDCHAR
STARTCHAR radical
ENCODING 8730
SWIDTH 108 0
DWIDTH 3 0
BBX 1 1 0 0
BITMAP
00
ENDCHAR
STARTCHAR infinity
ENCODING 8734
SWIDTH 108 0
DWIDTH 3 0
BBX 1 1 0 0
BITMAP
00
ENDCHAR
STARTCHAR integral
ENCODING 8747
SWIDTH 362 0
DWIDTH 9 0
BBX 8 23 0 -2
BITMAP
0005
00BA
0246
0665
098B
0898
0894
0894
0894
0894
0894
0894
0894
0894
0894
0894
0894
0894
6994
1260
7960
0680
6900
ENDCHAR
STARTCHAR approxequal
ENCODING 8776
SWIDTH 665 0
DWIDTH 16 0
BBX 14 11 1 7
BITMAP
1AAAA150
64000260
8BAAA920
98555590
546AA500
00000000
1AAAA150
64000260
8BAAA920
98555590
546AA500
ENDCHAR
STARTCHAR notequal
ENCODING 8800
SWIDTH 473 0
DWIDTH 11 0
BBX 11 23 0 -3
BITMAP
000450
001A60
002720
002260
002690
15BED0
15EED0
2AEFE4
05EA50
2FFFF4
027200
022600
2BFFA4
1AED50
2FFFF4
1DE950
2FFEA4
1A6000
262000
226000
269000
698000
044000
ENDCHAR
STARTCHAR lessequal
ENCODING 8804
SWIDTH 108 0
DWIDTH 3 0
BBX 1 1 0 0
BITMAP
00
ENDCHAR
STARTCHAR greaterequal
ENCODING 8805
SWIDTH 108 0
DWIDTH 3 0
BBX 1 1 0 0
BITMAP
00
ENDCHAR
STARTCHAR lozenge
ENCODING 9674
SWIDTH 521 0
DWIDTH 13 0
BBX 12 17 0 0
BITMAP
00C980
029980
032650
066630
09D964
098C98
266598
326265
659232
366366
267598
19A4D8
08D9A4
069970
036660
026780
019A80
ENDCHAR
STARTCHAR uniF8FF
ENCODING 63743
SWIDTH 108 0
DWIDTH 3 0
BBX 1 1 0 0
BITMAP
00
ENDCHAR
STARTCHAR uniFB01
ENCODING 64257
SWIDTH 962 0
DWIDTH 23 0
BBX 21 17 1 0
BITMAP
996FFFD26580
DA6555436980
DA6AAA836980
DA6AAA836980
DA6555436980
DA6000036980
DA6000036980
DA6AAA836980
DA6555436980
DA6555436980
DA6AAA436980
DA6000036980
DA6000036980
DA6000036980
DA6000036980
DA6000036980
DA6000036980
ENDCHAR
STARTCHAR uniFB02
ENCODING 64258
SWIDTH 1208 0
DWIDTH 29 0
BBX 28 17 1 0
BITMAP
996FFFD2658000
DA655543698000
DA6AAA83698000
DA6AAA83698000
DA655543698000
DA600003698000
DA600003698000
DA6AAA83698000
DA655543698000
DA655543698000
DA6AAA43698000
DA600003698000
DA600003699554
DA60000369AAA8
DA60000369AAA8
DA600003699554
DA60000369BFFD
ENDCHAR
STARTCHAR .notdef
ENCODING -1
SWIDTH 108 0
DWIDTH 3 0
BBX 1 1 0 0
BITMAP
00
ENDCHAR
ENDFONT
